<svg width="319" height="388" viewBox="0 0 319 388" fill="none" xmlns="http://www.w3.org/2000/svg">
<g filter="url(#filter0_f_1505_3)">
<rect x="20" y="368" width="348" height="279" rx="12" transform="rotate(-90 20 368)" fill="#09143A" fill-opacity="0.06"/>
</g>
<rect x="12" y="13" width="292" height="342" rx="18" fill="#121212"/>
<path d="M41.4697 68.3398C42.1807 68.3145 42.6885 68.2214 42.9932 68.0605C43.5094 67.7897 43.7676 67.2734 43.7676 66.5117V53.9307C43.7676 53.1689 43.5221 52.6569 43.0312 52.3945C42.7435 52.2337 42.223 52.1322 41.4697 52.0898V51.4297H50.5596V52.0898C49.5016 52.1237 48.7949 52.2718 48.4395 52.5342C48.0924 52.7965 47.9189 53.444 47.9189 54.4766V66.7529C47.9189 67.3285 48.0671 67.7093 48.3633 67.8955C48.668 68.0817 49.2562 68.1748 50.1279 68.1748C51.6937 68.1748 53.0055 67.832 54.0635 67.1465C55.1299 66.4525 56.0482 65.1068 56.8184 63.1094H57.5801L56.5264 69H41.4697V68.3398ZM59.9033 53.0547C59.9033 52.4961 60.098 52.0221 60.4873 51.6328C60.8851 51.235 61.3633 51.0361 61.9219 51.0361C62.472 51.0361 62.9417 51.235 63.3311 51.6328C63.7288 52.0221 63.9277 52.4961 63.9277 53.0547C63.9277 53.6133 63.7288 54.0915 63.3311 54.4893C62.9417 54.8786 62.472 55.0732 61.9219 55.0732C61.3633 55.0732 60.8851 54.8786 60.4873 54.4893C60.098 54.0915 59.9033 53.6133 59.9033 53.0547ZM58.7607 68.3779C59.2178 68.3018 59.5309 68.1875 59.7002 68.0352C59.9541 67.8066 60.0811 67.3962 60.0811 66.8037V59.1611C60.0811 58.6364 59.9922 58.2809 59.8145 58.0947C59.6367 57.9001 59.2855 57.7562 58.7607 57.6631V57.0283H63.75V66.9053C63.75 67.4723 63.8346 67.8363 64.0039 67.9971C64.1732 68.1579 64.4906 68.2848 64.9561 68.3779V69H58.7607V68.3779ZM71.0498 66.4736C71.0837 66.9476 71.1768 67.3369 71.3291 67.6416C71.6338 68.234 72.1416 68.5303 72.8525 68.5303C73.7412 68.5303 74.3675 68.0605 74.7314 67.1211C75.1038 66.1816 75.29 64.8529 75.29 63.1348C75.29 61.7721 75.125 60.5999 74.7949 59.6182C74.4733 58.6364 73.8385 58.1455 72.8906 58.1455C72.332 58.1455 71.8835 58.3529 71.5449 58.7676C71.2148 59.1738 71.0498 59.4658 71.0498 59.6436V66.4736ZM71.0498 51.4297V58.1709C71.4561 57.7731 71.8327 57.4727 72.1797 57.2695C72.8145 56.9056 73.5 56.7236 74.2363 56.7236C75.7005 56.7236 76.877 57.2949 77.7656 58.4375C78.6628 59.5801 79.1113 60.985 79.1113 62.6523C79.1113 64.8021 78.54 66.4609 77.3975 67.6289C76.2633 68.7884 74.8499 69.3682 73.1572 69.3682C72.4632 69.3682 71.8496 69.2327 71.3164 68.9619C70.7832 68.6911 70.2839 68.3356 69.8184 67.8955L67.7744 69.3682H67.4062V53.5625C67.4062 53.0208 67.3089 52.6569 67.1143 52.4707C66.9196 52.276 66.5557 52.1406 66.0225 52.0645V51.4297H71.0498ZM80.5205 68.3779C81.0199 68.3187 81.3669 68.2002 81.5615 68.0225C81.7562 67.8447 81.862 67.502 81.8789 66.9941L81.9043 66.2324V59.1611C81.9043 58.6195 81.8112 58.2513 81.625 58.0566C81.4388 57.862 81.0706 57.7308 80.5205 57.6631V57.0283H85.459V59.0723C86.0091 58.3529 86.555 57.7816 87.0967 57.3584C87.6383 56.9352 88.2646 56.7236 88.9756 56.7236C89.5088 56.7236 89.987 56.8971 90.4102 57.2441C90.8418 57.5827 91.0576 58.082 91.0576 58.7422C91.0576 59.25 90.9053 59.6689 90.6006 59.999C90.3044 60.3291 89.915 60.4941 89.4326 60.4941C88.8825 60.4941 88.4043 60.236 87.998 59.7197C87.6003 59.2035 87.321 58.9453 87.1602 58.9453C86.8132 58.9453 86.4619 59.1611 86.1064 59.5928C85.7594 60.016 85.5859 60.6253 85.5859 61.4209V66.334C85.5859 67.1973 85.7087 67.7389 85.9541 67.959C86.208 68.1706 86.7074 68.3102 87.4521 68.3779V69H80.5205V68.3779ZM97.3037 67.5146C97.7269 67.5146 98.1204 67.3877 98.4844 67.1338C98.6875 66.9814 98.9287 66.7445 99.208 66.4229V62.627C98.514 62.7962 97.9046 63.0628 97.3799 63.4268C96.4912 64.0446 96.0469 64.8317 96.0469 65.7881C96.0469 66.3551 96.1738 66.7868 96.4277 67.083C96.6901 67.3708 96.9821 67.5146 97.3037 67.5146ZM92.2637 66.5752C92.2637 65.4072 92.8265 64.4805 93.9521 63.7949C95.0778 63.1094 96.8424 62.4196 99.2461 61.7256V59.834C99.2461 59.0638 99.0811 58.4967 98.751 58.1328C98.4294 57.7604 97.8538 57.5742 97.0244 57.5742C96.5589 57.5742 96.1738 57.6631 95.8691 57.8408C95.5729 58.0101 95.4248 58.2259 95.4248 58.4883C95.4248 58.5898 95.4417 58.6745 95.4756 58.7422C95.5094 58.8099 95.5602 58.8818 95.6279 58.958L95.7803 59.1357C95.8988 59.2796 95.9919 59.4404 96.0596 59.6182C96.1357 59.7874 96.1738 59.9694 96.1738 60.1641C96.1738 60.6549 96.0088 61.0358 95.6787 61.3066C95.3571 61.569 94.9805 61.7002 94.5488 61.7002C94.0495 61.7002 93.6221 61.5521 93.2666 61.2559C92.9196 60.9596 92.7461 60.5322 92.7461 59.9736C92.7461 58.9749 93.2158 58.1836 94.1553 57.5996C95.0947 57.0156 96.25 56.7236 97.6211 56.7236C99.0938 56.7236 100.325 57.0072 101.315 57.5742C102.297 58.1497 102.788 59.2077 102.788 60.748V67.0449C102.788 67.2311 102.835 67.3919 102.928 67.5273C103.029 67.6543 103.139 67.7178 103.258 67.7178C103.359 67.7178 103.448 67.7008 103.524 67.667C103.609 67.6247 103.736 67.5189 103.905 67.3496L104.299 67.8955C103.791 68.488 103.228 68.9027 102.61 69.1396C102.221 69.292 101.811 69.3682 101.379 69.3682C100.609 69.3682 100.046 69.1439 99.6904 68.6953C99.4873 68.4414 99.3392 68.0648 99.2461 67.5654C98.5267 68.2848 97.7142 68.7926 96.8086 69.0889C96.2585 69.2751 95.7168 69.3682 95.1836 69.3682C94.4727 69.3682 93.8083 69.1439 93.1904 68.6953C92.5726 68.2383 92.2637 67.5316 92.2637 66.5752ZM105.073 68.3779C105.573 68.3187 105.92 68.2002 106.114 68.0225C106.309 67.8447 106.415 67.502 106.432 66.9941L106.457 66.2324V59.1611C106.457 58.6195 106.364 58.2513 106.178 58.0566C105.992 57.862 105.623 57.7308 105.073 57.6631V57.0283H110.012V59.0723C110.562 58.3529 111.108 57.7816 111.649 57.3584C112.191 56.9352 112.817 56.7236 113.528 56.7236C114.062 56.7236 114.54 56.8971 114.963 57.2441C115.395 57.5827 115.61 58.082 115.61 58.7422C115.61 59.25 115.458 59.6689 115.153 59.999C114.857 60.3291 114.468 60.4941 113.985 60.4941C113.435 60.4941 112.957 60.236 112.551 59.7197C112.153 59.2035 111.874 58.9453 111.713 58.9453C111.366 58.9453 111.015 59.1611 110.659 59.5928C110.312 60.016 110.139 60.6253 110.139 61.4209V66.334C110.139 67.1973 110.261 67.7389 110.507 67.959C110.761 68.1706 111.26 68.3102 112.005 68.3779V69H105.073V68.3779ZM116.575 72.3516C116.575 71.7591 116.744 71.3232 117.083 71.0439C117.43 70.7646 117.84 70.625 118.314 70.625C118.729 70.625 119.068 70.7477 119.33 70.9932C119.601 71.2386 119.736 71.5306 119.736 71.8691L119.673 72.4404C119.673 72.5505 119.715 72.652 119.8 72.7451C119.884 72.8382 119.99 72.8848 120.117 72.8848C120.54 72.8848 120.934 72.542 121.298 71.8564C121.526 71.4333 121.856 70.6038 122.288 69.3682L119.165 61.6621C118.945 61.1204 118.729 60.6126 118.518 60.1387C118.314 59.6647 118.099 59.2035 117.87 58.7549C117.633 58.2979 117.447 58.0101 117.312 57.8916C117.176 57.7731 116.931 57.6969 116.575 57.6631V57.0283H123.075V57.6631C122.669 57.6715 122.335 57.7181 122.072 57.8027C121.818 57.8874 121.691 58.0693 121.691 58.3486C121.691 58.4079 121.704 58.4883 121.729 58.5898C121.763 58.6914 121.831 58.8734 121.933 59.1357L123.977 64.3662H124.18L125.843 59.6816C125.927 59.4277 125.995 59.2077 126.046 59.0215C126.105 58.8268 126.135 58.6576 126.135 58.5137C126.135 58.1497 126.012 57.9212 125.767 57.8281C125.53 57.7266 125.174 57.6715 124.7 57.6631V57.0283H128.636V57.6631C128.297 57.6885 128.018 57.7816 127.798 57.9424C127.586 58.0947 127.366 58.4714 127.138 59.0723L123.253 69.4316C122.542 71.3444 121.928 72.6436 121.412 73.3291C120.904 74.0146 120.104 74.3574 119.013 74.3574C118.217 74.3574 117.612 74.1458 117.197 73.7227C116.783 73.3079 116.575 72.8509 116.575 72.3516Z" fill="white"/>
<rect x="41" y="80" width="227" height="1" fill="#252525"/>
<rect x="41" y="80" width="227" height="1" fill="#252525"/>
<rect x="41" y="113" width="227" height="1" fill="#252525"/>
<path d="M44.664 129.164C44.64 129.204 44.6133 129.235 44.584 129.256C44.5573 129.275 44.524 129.284 44.484 129.284C44.4387 129.284 44.3853 129.261 44.324 129.216C44.2627 129.171 44.1853 129.121 44.092 129.068C44.0013 129.012 43.8907 128.961 43.76 128.916C43.632 128.871 43.476 128.848 43.292 128.848C43.1187 128.848 42.9653 128.872 42.832 128.92C42.7013 128.965 42.5907 129.028 42.5 129.108C42.412 129.188 42.3453 129.283 42.3 129.392C42.2547 129.499 42.232 129.615 42.232 129.74C42.232 129.9 42.2707 130.033 42.348 130.14C42.428 130.244 42.532 130.333 42.66 130.408C42.7907 130.483 42.9373 130.548 43.1 130.604C43.2653 130.657 43.4333 130.713 43.604 130.772C43.7773 130.831 43.9453 130.897 44.108 130.972C44.2733 131.044 44.42 131.136 44.548 131.248C44.6787 131.36 44.7827 131.497 44.86 131.66C44.94 131.823 44.98 132.023 44.98 132.26C44.98 132.511 44.9373 132.747 44.852 132.968C44.7667 133.187 44.6413 133.377 44.476 133.54C44.3133 133.703 44.112 133.831 43.872 133.924C43.6347 134.017 43.364 134.064 43.06 134.064C42.6867 134.064 42.348 133.997 42.044 133.864C41.74 133.728 41.48 133.545 41.264 133.316L41.488 132.948C41.5093 132.919 41.5347 132.895 41.564 132.876C41.596 132.855 41.6307 132.844 41.668 132.844C41.7027 132.844 41.7413 132.859 41.784 132.888C41.8293 132.915 41.88 132.949 41.936 132.992C41.992 133.035 42.056 133.081 42.128 133.132C42.2 133.183 42.2813 133.229 42.372 133.272C42.4653 133.315 42.5707 133.351 42.688 133.38C42.8053 133.407 42.9373 133.42 43.084 133.42C43.268 133.42 43.432 133.395 43.576 133.344C43.72 133.293 43.8413 133.223 43.94 133.132C44.0413 133.039 44.1187 132.928 44.172 132.8C44.2253 132.672 44.252 132.529 44.252 132.372C44.252 132.199 44.212 132.057 44.132 131.948C44.0547 131.836 43.952 131.743 43.824 131.668C43.696 131.593 43.5493 131.531 43.384 131.48C43.2187 131.427 43.0507 131.373 42.88 131.32C42.7093 131.264 42.5413 131.2 42.376 131.128C42.2107 131.056 42.064 130.963 41.936 130.848C41.808 130.733 41.704 130.591 41.624 130.42C41.5467 130.247 41.508 130.033 41.508 129.78C41.508 129.577 41.5467 129.381 41.624 129.192C41.704 129.003 41.8187 128.835 41.968 128.688C42.12 128.541 42.3053 128.424 42.524 128.336C42.7453 128.248 42.9987 128.204 43.284 128.204C43.604 128.204 43.8947 128.255 44.156 128.356C44.42 128.457 44.652 128.604 44.852 128.796L44.664 129.164ZM51.3718 131.136C51.3718 131.565 51.3038 131.96 51.1678 132.32C51.0318 132.677 50.8398 132.985 50.5918 133.244C50.3438 133.503 50.0451 133.704 49.6958 133.848C49.3491 133.989 48.9651 134.06 48.5438 134.06C48.1224 134.06 47.7384 133.989 47.3918 133.848C47.0451 133.704 46.7478 133.503 46.4998 133.244C46.2518 132.985 46.0598 132.677 45.9238 132.32C45.7878 131.96 45.7198 131.565 45.7198 131.136C45.7198 130.707 45.7878 130.313 45.9238 129.956C46.0598 129.596 46.2518 129.287 46.4998 129.028C46.7478 128.767 47.0451 128.564 47.3918 128.42C47.7384 128.276 48.1224 128.204 48.5438 128.204C48.9651 128.204 49.3491 128.276 49.6958 128.42C50.0451 128.564 50.3438 128.767 50.5918 129.028C50.8398 129.287 51.0318 129.596 51.1678 129.956C51.3038 130.313 51.3718 130.707 51.3718 131.136ZM50.5758 131.136C50.5758 130.784 50.5278 130.468 50.4318 130.188C50.3358 129.908 50.1998 129.672 50.0238 129.48C49.8478 129.285 49.6344 129.136 49.3837 129.032C49.1331 128.928 48.8531 128.876 48.5438 128.876C48.2371 128.876 47.9584 128.928 47.7078 129.032C47.4571 129.136 47.2424 129.285 47.0638 129.48C46.8878 129.672 46.7518 129.908 46.6558 130.188C46.5598 130.468 46.5118 130.784 46.5118 131.136C46.5118 131.488 46.5598 131.804 46.6558 132.084C46.7518 132.361 46.8878 132.597 47.0638 132.792C47.2424 132.984 47.4571 133.132 47.7078 133.236C47.9584 133.337 48.2371 133.388 48.5438 133.388C48.8531 133.388 49.1331 133.337 49.3837 133.236C49.6344 133.132 49.8478 132.984 50.0238 132.792C50.1998 132.597 50.3358 132.361 50.4318 132.084C50.5278 131.804 50.5758 131.488 50.5758 131.136ZM54.07 131.044C54.294 131.044 54.4913 131.017 54.662 130.964C54.8353 130.908 54.9793 130.831 55.094 130.732C55.2113 130.631 55.2993 130.511 55.358 130.372C55.4167 130.233 55.446 130.08 55.446 129.912C55.446 129.571 55.334 129.313 55.11 129.14C54.886 128.967 54.55 128.88 54.102 128.88H53.254V131.044H54.07ZM56.718 134H56.03C55.8887 134 55.7847 133.945 55.718 133.836L54.23 131.788C54.1847 131.724 54.1353 131.679 54.082 131.652C54.0313 131.623 53.9513 131.608 53.842 131.608H53.254V134H52.482V128.268H54.102C54.4647 128.268 54.778 128.305 55.042 128.38C55.306 128.452 55.5233 128.557 55.694 128.696C55.8673 128.835 55.9953 129.003 56.078 129.2C56.1607 129.395 56.202 129.613 56.202 129.856C56.202 130.059 56.17 130.248 56.106 130.424C56.042 130.6 55.9487 130.759 55.826 130.9C55.706 131.039 55.558 131.157 55.382 131.256C55.2087 131.355 55.0113 131.429 54.79 131.48C54.8887 131.536 54.974 131.617 55.046 131.724L56.718 134ZM61.1861 128.92H59.3301V134H58.5581V128.92H56.6981V128.268H61.1861V128.92Z" fill="#626262"/>
<path d="M74.0566 128.216V134H73.1086V130.264C73.1086 130.115 73.1166 129.953 73.1326 129.78L71.3846 133.064C71.302 133.221 71.1753 133.3 71.0046 133.3H70.8526C70.682 133.3 70.5553 133.221 70.4726 133.064L68.7046 129.768C68.7126 129.856 68.7193 129.943 68.7246 130.028C68.73 130.113 68.7326 130.192 68.7326 130.264V134H67.7846V128.216H68.5966C68.6446 128.216 68.686 128.217 68.7206 128.22C68.7553 128.223 68.786 128.229 68.8126 128.24C68.842 128.251 68.8673 128.268 68.8886 128.292C68.9126 128.316 68.9353 128.348 68.9566 128.388L70.6886 131.6C70.734 131.685 70.7753 131.773 70.8126 131.864C70.8526 131.955 70.8913 132.048 70.9286 132.144C70.966 132.045 71.0046 131.951 71.0446 131.86C71.0846 131.767 71.1273 131.677 71.1726 131.592L72.8806 128.388C72.902 128.348 72.9246 128.316 72.9486 128.292C72.9726 128.268 72.998 128.251 73.0246 128.24C73.054 128.229 73.086 128.223 73.1206 128.22C73.1553 128.217 73.1966 128.216 73.2446 128.216H74.0566ZM78.4031 131.816L77.6991 129.892C77.6645 129.807 77.6285 129.705 77.5911 129.588C77.5538 129.471 77.5165 129.344 77.4791 129.208C77.4445 129.344 77.4085 129.472 77.3711 129.592C77.3338 129.709 77.2978 129.812 77.2631 129.9L76.5631 131.816H78.4031ZM80.3031 134H79.4711C79.3778 134 79.3018 133.977 79.2431 133.932C79.1845 133.884 79.1405 133.825 79.1111 133.756L78.6791 132.576H76.2831L75.8511 133.756C75.8298 133.817 75.7885 133.873 75.7271 133.924C75.6658 133.975 75.5898 134 75.4991 134H74.6591L76.9351 128.216H78.0311L80.3031 134ZM85.7778 128.216V134H85.2258C85.1405 134 85.0685 133.987 85.0098 133.96C84.9538 133.931 84.8991 133.883 84.8458 133.816L81.8258 129.96C81.8418 130.136 81.8498 130.299 81.8498 130.448V134H80.9018V128.216H81.4658C81.5111 128.216 81.5498 128.219 81.5818 128.224C81.6165 128.227 81.6458 128.235 81.6698 128.248C81.6965 128.259 81.7218 128.276 81.7458 128.3C81.7698 128.321 81.7965 128.351 81.8258 128.388L84.8578 132.26C84.8498 132.167 84.8431 132.075 84.8378 131.984C84.8325 131.893 84.8298 131.809 84.8298 131.732V128.216H85.7778ZM89.3939 133.132C89.6019 133.132 89.7872 133.097 89.9499 133.028C90.1152 132.959 90.2539 132.861 90.3659 132.736C90.4779 132.611 90.5632 132.459 90.6219 132.28C90.6832 132.101 90.7139 131.901 90.7139 131.68V128.216H91.7899V131.68C91.7899 132.024 91.7339 132.343 91.6219 132.636C91.5125 132.927 91.3539 133.179 91.1459 133.392C90.9405 133.603 90.6899 133.768 90.3939 133.888C90.0979 134.005 89.7645 134.064 89.3939 134.064C89.0205 134.064 88.6859 134.005 88.3899 133.888C88.0939 133.768 87.8419 133.603 87.6339 133.392C87.4285 133.179 87.2699 132.927 87.1579 132.636C87.0485 132.343 86.9939 132.024 86.9939 131.68V128.216H88.0699V131.676C88.0699 131.897 88.0992 132.097 88.1579 132.276C88.2192 132.455 88.3059 132.608 88.4179 132.736C88.5325 132.861 88.6712 132.959 88.8339 133.028C88.9992 133.097 89.1859 133.132 89.3939 133.132ZM95.9188 131.816L95.2148 129.892C95.1801 129.807 95.1441 129.705 95.1068 129.588C95.0694 129.471 95.0321 129.344 94.9948 129.208C94.9601 129.344 94.9241 129.472 94.8868 129.592C94.8494 129.709 94.8134 129.812 94.7788 129.9L94.0788 131.816H95.9188ZM97.8188 134H96.9868C96.8934 134 96.8174 133.977 96.7588 133.932C96.7001 133.884 96.6561 133.825 96.6267 133.756L96.1948 132.576H93.7988L93.3668 133.756C93.3454 133.817 93.3041 133.873 93.2428 133.924C93.1814 133.975 93.1054 134 93.0148 134H92.1747L94.4508 128.216H95.5468L97.8188 134ZM101.805 133.112V134H98.4174V128.216H99.4934V133.112H101.805ZM105.962 133.112V134H102.574V128.216H103.65V133.112H105.962ZM108.456 131.76V134H107.384V131.76L105.276 128.216H106.224C106.317 128.216 106.391 128.239 106.444 128.284C106.5 128.329 106.547 128.387 106.584 128.456L107.64 130.388C107.701 130.503 107.755 130.611 107.8 130.712C107.848 130.813 107.891 130.915 107.928 131.016C107.963 130.915 108.003 130.813 108.048 130.712C108.093 130.611 108.145 130.503 108.204 130.388L109.256 128.456C109.285 128.397 109.329 128.343 109.388 128.292C109.447 128.241 109.521 128.216 109.612 128.216H110.564L108.456 131.76Z" fill="#9C9C9C"/>
<defs>
<filter id="filter0_f_1505_3" x="0" y="0" width="319" height="388" filterUnits="userSpaceOnUse" color-interpolation-filters="sRGB">
<feFlood flood-opacity="0" result="BackgroundImageFix"/>
<feBlend mode="normal" in="SourceGraphic" in2="BackgroundImageFix" result="shape"/>
<feGaussianBlur stdDeviation="10" result="effect1_foregroundBlur_1505_3"/>
</filter>
</defs>
</svg>
