<svg width="57" height="57" viewBox="0 0 57 57" fill="none" xmlns="http://www.w3.org/2000/svg">
<g filter="url(#filter0_d)">
<rect x="4" y="2" width="49" height="49" rx="10" fill="url(#paint0_linear)"/>
</g>
<path d="M28.9931 17.7391L29.6169 16.6629C30.0008 15.9911 30.8577 15.7649 31.5294 16.1488C32.2012 16.5327 32.4274 17.3895 32.0435 18.0613L26.0456 28.4464H30.3847C31.7899 28.4464 32.5782 30.0984 31.9681 31.2431H19.2524C18.4778 31.2431 17.854 30.6194 17.854 29.8448C17.854 29.0702 18.4778 28.4464 19.2524 28.4464H22.8169L27.3823 20.5359L25.9565 18.0613C25.5726 17.3895 25.7988 16.5395 26.4706 16.1488C27.1423 15.7649 27.9923 15.9911 28.3831 16.6629L28.9931 17.7391ZM23.5984 32.6827L22.2548 35.0133C21.871 35.6851 21.0141 35.9113 20.3423 35.5274C19.6706 35.1435 19.4444 34.2867 19.8282 33.6149L20.829 31.8875C21.9532 31.5379 22.8718 31.8052 23.5984 32.6827ZM35.1762 28.4532H38.8161C39.5907 28.4532 40.2145 29.077 40.2145 29.8516C40.2145 30.6262 39.5907 31.25 38.8161 31.25H36.794L38.1581 33.6149C38.5419 34.2867 38.3157 35.1367 37.644 35.5274C36.9722 35.9113 36.1222 35.6851 35.7315 35.0133C33.4351 31.0306 31.7077 28.0488 30.5629 26.0609C29.3907 24.0387 30.227 22.0097 31.0565 21.3242C31.975 22.9008 33.346 25.2794 35.1762 28.4532ZM29 10C19.6089 10 12 17.6089 12 27C12 36.3911 19.6089 44 29 44C38.3911 44 46 36.3911 46 27C46 17.6089 38.3911 10 29 10ZM43.8065 27C43.8065 35.1367 37.219 41.8065 29 41.8065C20.8633 41.8065 14.1935 35.219 14.1935 27C14.1935 18.8633 20.781 12.1935 29 12.1935C37.1367 12.1935 43.8065 18.781 43.8065 27Z" fill="white"/>
<defs>
<filter id="filter0_d" x="0" y="0" width="57" height="57" filterUnits="userSpaceOnUse" color-interpolation-filters="sRGB">
<feFlood flood-opacity="0" result="BackgroundImageFix"/>
<feColorMatrix in="SourceAlpha" type="matrix" values="0 0 0 0 0 0 0 0 0 0 0 0 0 0 0 0 0 0 127 0"/>
<feOffset dy="2"/>
<feGaussianBlur stdDeviation="2"/>
<feColorMatrix type="matrix" values="0 0 0 0 0 0 0 0 0 0 0 0 0 0 0 0 0 0 0.1 0"/>
<feBlend mode="normal" in2="BackgroundImageFix" result="effect1_dropShadow"/>
<feBlend mode="normal" in="SourceGraphic" in2="effect1_dropShadow" result="shape"/>
</filter>
<linearGradient id="paint0_linear" x1="29" y1="51" x2="29" y2="2" gradientUnits="userSpaceOnUse">
<stop stop-color="#3E8BFB"/>
<stop offset="1" stop-color="#58C9FA"/>
</linearGradient>
</defs>
</svg>
