<svg width="57" height="57" viewBox="0 0 57 57" fill="none" xmlns="http://www.w3.org/2000/svg">
<g filter="url(#filter0_d)">
<rect x="4" y="2" width="49" height="49" rx="10" fill="url(#paint0_linear)"/>
</g>
<path d="M29 12C20.729 12 14 18.729 14 27C14 35.271 20.729 42 29 42C37.271 42 44 35.271 44 27C44 18.729 37.271 12 29 12ZM38.9175 18.9173C40.702 21.0975 41.7826 23.8744 41.8108 26.8984C41.3884 26.8091 37.1524 25.9499 32.8893 26.4861C32.5414 25.6368 32.213 24.8897 31.7633 23.9691C36.5004 22.035 38.6474 19.2827 38.9175 18.9173ZM37.4932 17.4357C37.2628 17.7639 35.3341 20.3562 30.7782 22.0639C28.6787 18.2064 26.3517 15.0376 25.9976 14.5634C30.0606 13.584 34.3423 14.6402 37.4932 17.4357ZM23.5529 15.4246C23.8907 15.8878 26.1802 19.0606 28.3031 22.8344C22.3099 24.4259 17.0313 24.403 16.4583 24.3954C17.2891 20.4197 19.9684 17.1153 23.5529 15.4246ZM16.1877 27.0195C16.1877 26.8885 16.1903 26.7581 16.1942 26.628C16.7548 26.6395 22.9636 26.7195 29.3619 24.8047C29.7287 25.5225 30.0791 26.2511 30.4007 26.979C25.7677 28.284 21.5583 32.031 19.4815 35.5862C17.4351 33.3148 16.1877 30.3103 16.1877 27.0195ZM21.1357 37.1272C22.474 34.3913 26.1061 30.8597 31.2715 29.0976C33.0703 33.772 33.8142 37.6895 34.0047 38.8136C29.8851 40.5684 24.9312 40.087 21.1357 37.1272ZM36.1587 37.6406C36.0274 36.8612 35.3454 33.1106 33.6697 28.5056C37.6846 27.8629 41.212 28.9149 41.6503 29.0532C41.0792 32.6182 39.033 35.697 36.1587 37.6406Z" fill="white"/>
<defs>
<filter id="filter0_d" x="0" y="0" width="57" height="57" filterUnits="userSpaceOnUse" color-interpolation-filters="sRGB">
<feFlood flood-opacity="0" result="BackgroundImageFix"/>
<feColorMatrix in="SourceAlpha" type="matrix" values="0 0 0 0 0 0 0 0 0 0 0 0 0 0 0 0 0 0 127 0"/>
<feOffset dy="2"/>
<feGaussianBlur stdDeviation="2"/>
<feColorMatrix type="matrix" values="0 0 0 0 0 0 0 0 0 0 0 0 0 0 0 0 0 0 0.1 0"/>
<feBlend mode="normal" in2="BackgroundImageFix" result="effect1_dropShadow"/>
<feBlend mode="normal" in="SourceGraphic" in2="effect1_dropShadow" result="shape"/>
</filter>
<linearGradient id="paint0_linear" x1="28.5" y1="51" x2="28.5" y2="2" gradientUnits="userSpaceOnUse">
<stop stop-color="#EC498A"/>
<stop offset="1" stop-color="#FF68A4"/>
</linearGradient>
</defs>
</svg>
