<svg width="57" height="57" viewBox="0 0 57 57" fill="none" xmlns="http://www.w3.org/2000/svg">
<g filter="url(#filter0_d)">
<rect x="4" y="2" width="49" height="49" rx="10" fill="url(#paint0_linear)"/>
</g>
<path d="M27.422 39.161C20.5444 35.4096 17.0535 30.0951 16.1677 27.9068V37.4416C16.1677 39.1923 17.7308 39.161 18.6687 39.161H27.422Z" fill="url(#paint1_linear)"/>
<path d="M30.0793 13.839C36.957 17.5904 40.4479 22.9049 41.3336 25.0932V15.5584C41.3336 13.8077 39.7705 13.839 38.8327 13.839H30.0793Z" fill="url(#paint2_linear)"/>
<path d="M34.0447 38.2735L17.1939 21.281C16.6367 20.7192 16.3241 19.9599 16.3241 19.1686V17.3078C16.3241 15.651 17.6672 14.3078 19.3241 14.3078H21.4901C22.2858 14.3078 23.0489 14.6239 23.6115 15.1865L40.6112 32.1863C41.1738 32.7489 41.4899 33.512 41.4899 34.3076V36.161C41.4899 37.8179 40.1468 39.161 38.4899 39.161H36.1749C35.3749 39.161 34.608 38.8415 34.0447 38.2735Z" fill="url(#paint3_linear)"/>
<defs>
<filter id="filter0_d" x="0" y="0" width="57" height="57" filterUnits="userSpaceOnUse" color-interpolation-filters="sRGB">
<feFlood flood-opacity="0" result="BackgroundImageFix"/>
<feColorMatrix in="SourceAlpha" type="matrix" values="0 0 0 0 0 0 0 0 0 0 0 0 0 0 0 0 0 0 127 0" result="hardAlpha"/>
<feOffset dy="2"/>
<feGaussianBlur stdDeviation="2"/>
<feColorMatrix type="matrix" values="0 0 0 0 0 0 0 0 0 0 0 0 0 0 0 0 0 0 0.04 0"/>
<feBlend mode="normal" in2="BackgroundImageFix" result="effect1_dropShadow"/>
<feBlend mode="normal" in="SourceGraphic" in2="effect1_dropShadow" result="shape"/>
</filter>
<linearGradient id="paint0_linear" x1="28.5" y1="51" x2="28.5" y2="2" gradientUnits="userSpaceOnUse">
<stop stop-color="#15161F"/>
<stop offset="1" stop-color="#25272D"/>
</linearGradient>
<linearGradient id="paint1_linear" x1="21.7949" y1="27.9068" x2="21.7949" y2="39.1611" gradientUnits="userSpaceOnUse">
<stop stop-color="#FF5A79"/>
<stop offset="1" stop-color="#FF2951"/>
</linearGradient>
<linearGradient id="paint2_linear" x1="35.7065" y1="25.0932" x2="35.7065" y2="13.8389" gradientUnits="userSpaceOnUse">
<stop stop-color="#FF5A79"/>
<stop offset="1" stop-color="#FF2951"/>
</linearGradient>
<linearGradient id="paint3_linear" x1="28.907" y1="14.3078" x2="28.907" y2="39.161" gradientUnits="userSpaceOnUse">
<stop stop-color="#FF5A79"/>
<stop offset="1" stop-color="#FF2951"/>
</linearGradient>
</defs>
</svg>
