<svg width="57" height="57" viewBox="0 0 57 57" fill="none" xmlns="http://www.w3.org/2000/svg">
<g filter="url(#filter0_d)">
<path d="M4 12C4 6.47715 8.47715 2 14 2H43C48.5228 2 53 6.47715 53 12V41C53 46.5228 48.5228 51 43 51H14C8.47715 51 4 46.5228 4 41V12Z" fill="url(#paint0_linear)"/>
</g>
<g filter="url(#filter1_f)">
<rect x="4" y="9" width="49" height="6" fill="black" fill-opacity="0.2"/>
</g>
<path d="M4.00002 8C4.00002 4.68629 7.13403 2 11 2H46C49.866 2 53 4.68629 53 8C53 11.3137 49.866 14 46 14H11C7.13402 14 4.00002 11.3137 4.00002 8Z" fill="url(#paint1_linear)"/>
<path d="M4.00002 8H53V14H4.00002V8Z" fill="url(#paint2_linear)"/>
<rect x="4" y="25" width="49" height="1" fill="#F2F2F2"/>
<rect x="4" y="37" width="49" height="1" fill="#F2F2F2"/>
<defs>
<filter id="filter0_d" x="0" y="0" width="57" height="57" filterUnits="userSpaceOnUse" color-interpolation-filters="sRGB">
<feFlood flood-opacity="0" result="BackgroundImageFix"/>
<feColorMatrix in="SourceAlpha" type="matrix" values="0 0 0 0 0 0 0 0 0 0 0 0 0 0 0 0 0 0 127 0"/>
<feOffset dy="2"/>
<feGaussianBlur stdDeviation="2"/>
<feColorMatrix type="matrix" values="0 0 0 0 0 0 0 0 0 0 0 0 0 0 0 0 0 0 0.09 0"/>
<feBlend mode="normal" in2="BackgroundImageFix" result="effect1_dropShadow"/>
<feBlend mode="normal" in="SourceGraphic" in2="effect1_dropShadow" result="shape"/>
</filter>
<filter id="filter1_f" x="2" y="7" width="53" height="10" filterUnits="userSpaceOnUse" color-interpolation-filters="sRGB">
<feFlood flood-opacity="0" result="BackgroundImageFix"/>
<feBlend mode="normal" in="SourceGraphic" in2="BackgroundImageFix" result="shape"/>
<feGaussianBlur stdDeviation="1" result="effect1_foregroundBlur"/>
</filter>
<linearGradient id="paint0_linear" x1="29" y1="69.5" x2="29" y2="-8.5" gradientUnits="userSpaceOnUse">
<stop offset="0.0001" stop-color="white"/>
<stop offset="1" stop-color="white"/>
</linearGradient>
<linearGradient id="paint1_linear" x1="18.5" y1="-2.28572" x2="44.9625" y2="21.3835" gradientUnits="userSpaceOnUse">
<stop stop-color="#FFE279"/>
<stop offset="1" stop-color="#FFCF23"/>
</linearGradient>
<linearGradient id="paint2_linear" x1="18.5" y1="-2.28572" x2="44.9625" y2="21.3835" gradientUnits="userSpaceOnUse">
<stop stop-color="#FFE279"/>
<stop offset="1" stop-color="#FFCF23"/>
</linearGradient>
</defs>
</svg>
