<svg width="57" height="57" viewBox="0 0 57 57" fill="none" xmlns="http://www.w3.org/2000/svg">
<g filter="url(#filter0_d)">
<rect x="4" y="2" width="49" height="49" rx="10" fill="url(#paint0_linear)"/>
</g>
<path d="M31.7143 41.5352C31.3929 42.7233 30.1786 43 29 43C27.8214 43 26.6071 42.7233 26.2858 41.5352C25.8079 39.7584 25 35.3061 25 33.2344C25 31.0371 26.9464 30.5 29 30.5C31.0536 30.5 33 31.0371 33 33.2344C33 35.2937 32.1956 39.7456 31.7143 41.5352ZM24.8042 29.0346C23.6359 27.8904 22.9318 26.2738 23.0052 24.4972C23.1336 21.3894 25.6549 18.8749 28.7629 18.7546C32.1789 18.6224 35 21.3629 35 24.75C35 26.4267 34.3085 27.9447 33.1959 29.0345C33.0287 29.1982 33.0458 29.4711 33.2351 29.6087C33.8171 30.0315 34.2639 30.5676 34.5623 31.1939C34.6711 31.4222 34.9683 31.4851 35.1528 31.3121C36.9544 29.6219 38.0624 27.2006 37.9972 24.5267C37.8813 19.7639 34.0226 15.8888 29.2602 15.7537C24.1793 15.6096 20 19.7009 20 24.75C20 27.3351 21.0958 29.6688 22.8469 31.3118C23.0314 31.485 23.3288 31.4224 23.4377 31.1939C23.7361 30.5676 24.1829 30.0315 24.7649 29.6087C24.9542 29.4712 24.9714 29.1983 24.8042 29.0346ZM29 11C21.2628 11 15 17.2616 15 25C15 30.6245 18.2876 35.3529 22.8587 37.588C23.1295 37.7204 23.4379 37.4915 23.3921 37.1936C23.2432 36.2241 23.1207 35.2595 23.0542 34.4224C23.0451 34.3077 22.9824 34.2046 22.8869 34.1404C19.9244 32.1526 17.9766 28.7644 18.0002 24.9312C18.0372 18.9164 22.9558 14.0157 28.9707 14.0001C35.0496 13.9842 40 18.9248 40 25C40 28.8708 37.9901 32.2806 34.9594 34.2417C34.8969 35.119 34.7676 36.1534 34.6079 37.1936C34.5621 37.4915 34.8706 37.7204 35.1413 37.5879C39.7017 35.3579 43 30.6367 43 25C43 17.2628 36.7384 11 29 11ZM29 21C26.7909 21 25 22.7909 25 25C25 27.2091 26.7909 29 29 29C31.2091 29 33 27.2091 33 25C33 22.7909 31.2091 21 29 21Z" fill="white"/>
<defs>
<filter id="filter0_d" x="0" y="0" width="57" height="57" filterUnits="userSpaceOnUse" color-interpolation-filters="sRGB">
<feFlood flood-opacity="0" result="BackgroundImageFix"/>
<feColorMatrix in="SourceAlpha" type="matrix" values="0 0 0 0 0 0 0 0 0 0 0 0 0 0 0 0 0 0 127 0" result="hardAlpha"/>
<feOffset dy="2"/>
<feGaussianBlur stdDeviation="2"/>
<feColorMatrix type="matrix" values="0 0 0 0 0 0 0 0 0 0 0 0 0 0 0 0 0 0 0.04 0"/>
<feBlend mode="normal" in2="BackgroundImageFix" result="effect1_dropShadow"/>
<feBlend mode="normal" in="SourceGraphic" in2="effect1_dropShadow" result="shape"/>
</filter>
<linearGradient id="paint0_linear" x1="28.5" y1="51" x2="28.5" y2="2" gradientUnits="userSpaceOnUse">
<stop stop-color="#931DFF"/>
<stop offset="1" stop-color="#C381FF"/>
</linearGradient>
</defs>
</svg>
