<svg width="62" height="64" viewBox="0 0 62 64" fill="none" xmlns="http://www.w3.org/2000/svg">
<g filter="url(#filter0_d)">
<rect x="10" y="6" width="42" height="44" rx="10" fill="url(#paint0_linear)"/>
</g>
<path d="M42.9995 22.6481C42.9995 22.4065 42.9952 22.1659 42.9887 21.9238C42.9823 21.3957 42.9361 20.8689 42.8505 20.3478C42.7612 19.826 42.5947 19.3205 42.3566 18.8478C41.873 17.8984 41.1011 17.1267 40.1515 16.6434C39.6789 16.4049 39.1733 16.2385 38.6514 16.1495C38.1301 16.0634 37.603 16.017 37.0747 16.0107C36.8331 16.0043 36.5926 16.0016 36.3504 16H25.649C25.4074 16 25.1669 16.0043 24.9247 16.0107C24.7935 16.0145 24.6617 16.0187 24.5299 16.0252C24.1337 16.0411 23.7389 16.0826 23.3481 16.1495C22.9587 16.2174 22.5777 16.327 22.2118 16.4762C22.0882 16.528 21.9666 16.5837 21.8469 16.6434C21.4938 16.8241 21.1632 17.0456 20.8617 17.3034C20.761 17.3896 20.664 17.4791 20.5708 17.5712C20.1956 17.9455 19.8818 18.3767 19.6413 18.8489C19.403 19.3215 19.2365 19.8271 19.1473 20.3488C19.0625 20.8697 19.017 21.3961 19.0113 21.9238C19.0043 22.1654 19.0016 22.4059 19 22.6481V33.353C19 33.5946 19.0043 33.8351 19.0113 34.0767C19.0176 34.6048 19.0638 35.1317 19.1495 35.6528C19.2386 36.1746 19.4051 36.6801 19.6434 37.1527C20.1272 38.1014 20.8984 38.8729 21.8469 39.3572C22.3197 39.5952 22.8252 39.7615 23.347 39.8505C23.8683 39.9366 24.3953 39.983 24.9237 39.9893C25.1647 39.9957 25.4058 39.9984 25.648 40H36.3515C36.5931 40 36.8337 39.9957 37.0758 39.9893C37.6043 39.9827 38.1315 39.9363 38.653 39.8505C39.1748 39.7614 39.6803 39.5951 40.1531 39.3572C41.1018 38.8731 41.8731 38.1012 42.3566 37.1522C42.5949 36.6796 42.7614 36.174 42.8505 35.6522C42.9366 35.1312 42.983 34.6043 42.9893 34.0762C42.9957 33.8351 42.9984 33.5941 43 33.3525V23.5079C42.9995 23.2213 42.9995 22.9347 42.9995 22.6481ZM39.2557 35.5585C38.1842 33.473 36.1897 33.9905 35.1675 34.5155C35.0754 34.569 34.9811 34.6226 34.8862 34.6762L34.8637 34.6896C32.7476 35.8146 29.9066 35.8971 27.05 34.6692C24.7247 33.661 22.7584 31.9735 21.4092 29.8281C22.0656 30.3137 22.7686 30.7331 23.5077 31.08C26.5271 32.4943 29.5615 32.392 31.7045 31.08C28.6508 28.731 26.1007 25.6694 24.1458 23.1934C23.7733 22.7589 23.4369 22.2949 23.1396 21.8059C25.4808 23.9488 29.1774 26.639 30.505 27.3837C27.6886 24.4111 25.2071 20.7442 25.3233 20.862C29.7587 25.3309 33.8512 27.8578 33.8512 27.8578C34.0055 27.9424 34.1191 28.0104 34.2118 28.0721C34.2975 27.8534 34.3719 27.6304 34.4346 27.404C35.1429 24.815 34.3457 21.8552 32.5429 19.4114C36.6569 21.8799 39.0886 26.5721 38.0921 30.5406C38.0685 30.6332 38.0412 30.7227 38.015 30.8132C40.0786 33.3525 39.5172 36.0722 39.2541 35.559L39.2557 35.5585Z" fill="white"/>
<defs>
<filter id="filter0_d" x="0" y="0" width="62" height="64" filterUnits="userSpaceOnUse" color-interpolation-filters="sRGB">
<feFlood flood-opacity="0" result="BackgroundImageFix"/>
<feColorMatrix in="SourceAlpha" type="matrix" values="0 0 0 0 0 0 0 0 0 0 0 0 0 0 0 0 0 0 127 0" result="hardAlpha"/>
<feOffset dy="4"/>
<feGaussianBlur stdDeviation="5"/>
<feColorMatrix type="matrix" values="0 0 0 0 0 0 0 0 0 0 0 0 0 0 0 0 0 0 0.06 0"/>
<feBlend mode="normal" in2="BackgroundImageFix" result="effect1_dropShadow"/>
<feBlend mode="normal" in="SourceGraphic" in2="effect1_dropShadow" result="shape"/>
</filter>
<linearGradient id="paint0_linear" x1="31" y1="6" x2="31" y2="50" gradientUnits="userSpaceOnUse">
<stop stop-color="#FF7448"/>
<stop offset="1" stop-color="#FA2F2B"/>
</linearGradient>
</defs>
</svg>
