<svg width="54" height="56" viewBox="0 0 54 56" fill="none" xmlns="http://www.w3.org/2000/svg">
<g filter="url(#filter0_d)">
<rect x="6" y="2" width="42" height="44" rx="10" fill="url(#paint0_linear)"/>
</g>
<path d="M35.0535 19.7775C34.7688 19.6811 34.484 19.59 34.1992 19.5043C34.2467 19.3061 34.2889 19.1079 34.3311 18.9097C34.9797 15.717 34.5525 13.1511 33.1129 12.3047C31.726 11.4958 29.4637 12.3368 27.175 14.3617C26.9482 14.5599 26.7268 14.7688 26.5158 14.9777C26.3734 14.8385 26.2258 14.6992 26.0781 14.5653C23.6787 12.4011 21.274 11.4904 19.8344 12.3422C18.4527 13.1564 18.0414 15.5724 18.6215 18.5936C18.6795 18.8936 18.7428 19.1882 18.8166 19.4882C18.4791 19.5846 18.1469 19.6918 17.8357 19.8043C15.0197 20.7953 13 22.3595 13 23.9773C13 25.6486 15.1516 27.3253 18.0783 28.3431C18.3156 28.4235 18.5529 28.5038 18.7955 28.5734C18.7164 28.8949 18.6479 29.2109 18.5846 29.5377C18.0309 32.5107 18.4633 34.8678 19.8449 35.6766C21.2688 36.5123 23.6629 35.6552 25.9937 33.5821C26.1783 33.416 26.3629 33.2446 26.5475 33.0625C26.7795 33.2928 27.0221 33.5125 27.2646 33.7267C29.5217 35.6981 31.7523 36.4962 33.1287 35.6874C34.5525 34.8517 35.0166 32.3179 34.4154 29.2323C34.368 28.9966 34.3152 28.7556 34.2572 28.5092C34.426 28.461 34.5895 28.4074 34.7529 28.3538C37.7957 27.3307 40 25.6754 40 23.9773C40 22.3541 37.9223 20.7792 35.0535 19.7775ZM27.9186 15.2295C29.8803 13.4939 31.7102 12.8136 32.5434 13.301C33.4346 13.8207 33.7773 15.9205 33.2184 18.6793C33.1814 18.8615 33.1445 19.0382 33.0971 19.215C31.9264 18.9472 30.7398 18.7543 29.548 18.6472C28.8625 17.6508 28.1137 16.6973 27.3016 15.8027C27.5072 15.6045 27.7076 15.417 27.9186 15.2295ZM21.8172 26.7575C22.0861 27.2235 22.3604 27.6896 22.6504 28.1449C21.8277 28.0538 21.0104 27.9199 20.2035 27.7431C20.4355 26.9717 20.7256 26.1736 21.0631 25.3593C21.3057 25.8307 21.5535 26.2968 21.8172 26.7575ZM20.2193 20.3132C20.9787 20.1418 21.7855 20.0025 22.624 19.8953C22.3445 20.34 22.0703 20.7953 21.8119 21.256C21.5535 21.7113 21.3004 22.1774 21.0631 22.6488C20.7309 21.8506 20.4514 21.0685 20.2193 20.3132ZM21.6643 24.004C22.0123 23.2648 22.392 22.5416 22.7928 21.8292C23.1936 21.1167 23.626 20.4257 24.0795 19.7453C24.8705 19.6864 25.6773 19.6543 26.5 19.6543C27.3227 19.6543 28.1348 19.6864 28.9205 19.7453C29.3687 20.4203 29.7959 21.1113 30.202 21.8184C30.608 22.5256 30.9877 23.2487 31.3463 23.9826C30.993 24.7219 30.6133 25.4504 30.2072 26.1682C29.8064 26.8807 29.3793 27.5717 28.9311 28.2574C28.1453 28.3163 27.3279 28.3431 26.5 28.3431C25.6721 28.3431 24.8705 28.3163 24.0953 28.2681C23.6365 27.5878 23.2041 26.8914 22.798 26.1789C22.392 25.4665 22.0176 24.7433 21.6643 24.004ZM31.1881 26.7468C31.457 26.2754 31.7102 25.7986 31.958 25.3165C32.2955 26.0932 32.5908 26.8807 32.8492 27.6896C32.0318 27.8771 31.2039 28.0217 30.3707 28.1181C30.6555 27.6681 30.9244 27.2074 31.1881 26.7468ZM31.9475 22.6488C31.6996 22.1774 31.4465 21.706 31.1828 21.2453C30.9244 20.7899 30.6555 20.34 30.376 19.8953C31.225 20.0025 32.0371 20.1471 32.7965 20.3239C32.5539 21.1167 32.2691 21.8881 31.9475 22.6488ZM26.5105 16.6223C27.0643 17.233 27.5863 17.8758 28.0715 18.5401C27.0273 18.4918 25.9779 18.4918 24.9338 18.5401C25.4506 17.849 25.9832 17.2062 26.5105 16.6223ZM20.3934 13.3385C21.2793 12.8136 23.2463 13.5635 25.3188 15.4277C25.4506 15.5456 25.5824 15.6741 25.7195 15.8027C24.9021 16.6973 24.148 17.6508 23.4572 18.6472C22.2654 18.7543 21.0842 18.9418 19.9135 19.2043C19.8449 18.9311 19.7869 18.6525 19.7289 18.374C19.2332 15.7813 19.5602 13.826 20.3934 13.3385ZM19.1014 27.4592C18.8799 27.3949 18.6637 27.3253 18.4475 27.2503C17.3242 26.8914 16.048 26.3236 15.1252 25.579C14.5926 25.204 14.234 24.6254 14.1338 23.9773C14.1338 22.997 15.8002 21.7435 18.2049 20.8917C18.5055 20.7846 18.8113 20.6882 19.1172 20.5971C19.4758 21.7595 19.9082 22.9005 20.4092 24.004C19.9029 25.1236 19.4652 26.2807 19.1014 27.4592ZM25.2502 32.7089C24.3801 33.5178 23.3729 34.1606 22.276 34.5999C21.6906 34.8838 21.0156 34.9106 20.4145 34.6695C19.576 34.1767 19.2279 32.2857 19.7025 29.7412C19.7605 29.4413 19.8238 29.1413 19.8977 28.8466C21.0789 29.1038 22.2707 29.2806 23.4783 29.3716C24.1744 30.3733 24.9391 31.3322 25.7564 32.2322C25.5877 32.3982 25.4189 32.5589 25.2502 32.7089ZM26.5422 31.4072C26.0043 30.818 25.4664 30.1644 24.9443 29.4627C25.4506 29.4841 25.9727 29.4948 26.5 29.4948C27.0432 29.4948 27.5758 29.4841 28.1031 29.4573C27.618 30.1376 27.0959 30.7858 26.5422 31.4072ZM33.4346 33.0143C33.3871 33.6678 33.0707 34.2785 32.5645 34.691C31.726 35.1838 29.9383 34.541 28.0082 32.8589C27.7867 32.6661 27.5652 32.4572 27.3385 32.2429C28.1453 31.3376 28.8889 30.3787 29.5639 29.3716C30.7715 29.2698 31.9738 29.0823 33.1604 28.8091C33.2131 29.0288 33.2605 29.2484 33.3027 29.4627C33.5611 30.6198 33.6033 31.8251 33.4346 33.0143ZM34.3943 27.2557C34.2467 27.3039 34.099 27.3521 33.9461 27.3949C33.577 26.2271 33.1234 25.0861 32.6014 23.9773C33.1076 22.8845 33.5348 21.7595 33.8934 20.6078C34.1676 20.6882 34.4313 20.7739 34.6844 20.8596C37.1418 21.7167 38.8662 22.9916 38.8662 23.9665C38.8662 25.0165 37.0258 26.3718 34.3943 27.2557ZM26.5 26.4521C27.8342 26.4521 28.9152 25.354 28.9152 23.9987C28.9152 22.6434 27.8342 21.5452 26.5 21.5452C25.1658 21.5452 24.0848 22.6434 24.0848 23.9987C24.0848 25.354 25.1658 26.4521 26.5 26.4521Z" fill="white"/>
<defs>
<filter id="filter0_d" x="0" y="0" width="54" height="56" filterUnits="userSpaceOnUse" color-interpolation-filters="sRGB">
<feFlood flood-opacity="0" result="BackgroundImageFix"/>
<feColorMatrix in="SourceAlpha" type="matrix" values="0 0 0 0 0 0 0 0 0 0 0 0 0 0 0 0 0 0 127 0" result="hardAlpha"/>
<feOffset dy="4"/>
<feGaussianBlur stdDeviation="3"/>
<feColorMatrix type="matrix" values="0 0 0 0 0 0 0 0 0 0 0 0 0 0 0 0 0 0 0.06 0"/>
<feBlend mode="normal" in2="BackgroundImageFix" result="effect1_dropShadow"/>
<feBlend mode="normal" in="SourceGraphic" in2="effect1_dropShadow" result="shape"/>
</filter>
<linearGradient id="paint0_linear" x1="27" y1="2" x2="27" y2="46" gradientUnits="userSpaceOnUse">
<stop stop-color="#8DE7FF"/>
<stop offset="0.973958" stop-color="#41CAF0"/>
</linearGradient>
</defs>
</svg>
