<svg width="77" height="77" viewBox="0 0 77 77" fill="none" xmlns="http://www.w3.org/2000/svg">
<path d="M39.0107 37.2156C37.9756 37.2156 37.1357 38.0547 37.1357 39.0906C37.2248 44.7352 36.4998 50.1766 34.9717 55.618C34.7584 56.3773 35.1396 58 36.7779 58C37.5967 58 38.349 57.4594 38.5818 56.6312C39.6388 52.8883 41.0068 46.8336 40.8849 39.0906C40.8857 38.0555 40.0467 37.2156 39.0107 37.2156V37.2156ZM38.9435 30.8305C34.1576 30.825 30.8177 34.5078 30.8842 38.7281C30.9427 42.4734 30.5912 46.2211 29.8396 49.8648C29.6295 50.8789 30.2826 51.8719 31.2959 52.0805C32.3154 52.2891 33.3013 51.6383 33.5115 50.6242C34.3193 46.7109 34.6967 42.6883 34.6342 38.6695C34.6021 36.6422 36.1904 34.5687 38.8881 34.5805C41.3342 34.6172 43.3529 36.5602 43.3896 38.9141C43.4498 42.668 43.1701 46.4398 42.5607 50.1289C42.3912 51.1492 43.0834 52.1148 44.1045 52.2836C45.6646 52.5437 46.199 51.1039 46.2592 50.7391C46.906 46.8305 47.2013 42.832 47.1396 38.8555C47.0709 34.4961 43.3943 30.8961 38.9435 30.8305V30.8305ZM30.2959 29.2852C29.4912 28.6336 28.3138 28.7539 27.6584 29.557C25.6568 32.018 24.581 35.1258 24.631 38.307C24.6771 41.243 24.4381 44.1875 23.9193 47.0609C23.7365 48.0805 24.4123 49.0555 25.4318 49.2398C27.0029 49.5133 27.5467 48.0828 27.6107 47.7273C28.1724 44.6148 28.431 41.4258 28.381 38.2484C28.3443 35.9141 29.0998 33.7266 30.5685 31.9227C31.2209 31.1195 31.099 29.9391 30.2959 29.2852ZM38.8482 24.4156C37.6443 24.3836 36.4365 24.5281 35.2717 24.8039C34.2646 25.043 33.6412 26.0523 33.8787 27.0609C34.1177 28.068 35.1287 28.6883 36.1357 28.4539C36.999 28.25 37.8912 28.1594 38.792 28.1656C44.6849 28.2539 49.5521 32.9703 49.642 38.6797C49.6881 41.6391 49.542 44.6258 49.206 47.557C49.0888 48.5859 49.8271 49.5164 50.8552 49.6336C52.1615 49.7859 52.8482 48.7055 52.9318 47.9844C53.2868 44.8765 53.4405 41.7488 53.392 38.6211C53.2701 30.9062 46.7459 24.5328 38.8482 24.4156V24.4156ZM58.5412 33.9039C58.3177 32.8945 57.3295 32.2477 56.306 32.4766C55.2951 32.7 54.656 33.7 54.8795 34.7117C55.2474 36.3844 55.2631 37.6344 55.2467 39.5242C55.2381 40.5609 56.0709 41.4062 57.106 41.4148H57.1216C58.1506 41.4148 58.9881 40.5859 58.9966 39.5555C59.0107 37.8227 59.0279 36.1094 58.5412 33.9039ZM55.4068 26.8164C51.6021 21.3953 45.3763 18.1008 38.7521 18.0016C33.2998 17.9359 28.2568 19.9461 24.506 23.6984C20.8834 27.3258 18.931 32.1437 19.0123 37.2695L19.0029 38.9469C18.9724 39.982 19.7865 40.8461 20.8217 40.8758C20.8396 40.8773 20.8592 40.8773 20.8779 40.8773C21.8873 40.8773 22.7209 40.0727 22.7506 39.057L22.7631 37.2102C22.6982 33.1086 24.2599 29.2523 27.1599 26.3508C30.1881 23.3195 34.2959 21.6891 38.6974 21.7523C44.1232 21.8328 49.2232 24.5305 52.3396 28.9703C52.9342 29.8187 54.1021 30.0211 54.9506 29.4281C55.7974 28.8328 56.0021 27.6633 55.4068 26.8164V26.8164Z" fill="#E8EAEF"/>
<circle cx="38.5" cy="38.5" r="36.5" stroke="#E8EAEF" stroke-opacity="0.4" stroke-width="4"/>
</svg>
