<svg width="319" height="388" viewBox="0 0 319 388" fill="none" xmlns="http://www.w3.org/2000/svg">
<g filter="url(#filter0_f_1505_3)">
<rect x="20" y="368" width="348" height="279" rx="12" transform="rotate(-90 20 368)" fill="#09143A" fill-opacity="0.06"/>
</g>
<rect x="12" y="13" width="292" height="342" rx="18" fill="white"/>
<path d="M41.4697 68.3398C42.1807 68.3145 42.6885 68.2214 42.9932 68.0605C43.5094 67.7897 43.7676 67.2734 43.7676 66.5117V53.9307C43.7676 53.1689 43.5221 52.6569 43.0312 52.3945C42.7435 52.2337 42.223 52.1322 41.4697 52.0898V51.4297H50.5596V52.0898C49.5016 52.1237 48.7949 52.2718 48.4395 52.5342C48.0924 52.7965 47.9189 53.444 47.9189 54.4766V66.7529C47.9189 67.3285 48.0671 67.7093 48.3633 67.8955C48.668 68.0817 49.2562 68.1748 50.1279 68.1748C51.6937 68.1748 53.0055 67.832 54.0635 67.1465C55.1299 66.4525 56.0482 65.1068 56.8184 63.1094H57.5801L56.5264 69H41.4697V68.3398ZM59.9033 53.0547C59.9033 52.4961 60.098 52.0221 60.4873 51.6328C60.8851 51.235 61.3633 51.0361 61.9219 51.0361C62.472 51.0361 62.9417 51.235 63.3311 51.6328C63.7288 52.0221 63.9277 52.4961 63.9277 53.0547C63.9277 53.6133 63.7288 54.0915 63.3311 54.4893C62.9417 54.8786 62.472 55.0732 61.9219 55.0732C61.3633 55.0732 60.8851 54.8786 60.4873 54.4893C60.098 54.0915 59.9033 53.6133 59.9033 53.0547ZM58.7607 68.3779C59.2178 68.3018 59.5309 68.1875 59.7002 68.0352C59.9541 67.8066 60.0811 67.3962 60.0811 66.8037V59.1611C60.0811 58.6364 59.9922 58.2809 59.8145 58.0947C59.6367 57.9001 59.2855 57.7562 58.7607 57.6631V57.0283H63.75V66.9053C63.75 67.4723 63.8346 67.8363 64.0039 67.9971C64.1732 68.1579 64.4906 68.2848 64.9561 68.3779V69H58.7607V68.3779ZM71.0498 66.4736C71.0837 66.9476 71.1768 67.3369 71.3291 67.6416C71.6338 68.234 72.1416 68.5303 72.8525 68.5303C73.7412 68.5303 74.3675 68.0605 74.7314 67.1211C75.1038 66.1816 75.29 64.8529 75.29 63.1348C75.29 61.7721 75.125 60.5999 74.7949 59.6182C74.4733 58.6364 73.8385 58.1455 72.8906 58.1455C72.332 58.1455 71.8835 58.3529 71.5449 58.7676C71.2148 59.1738 71.0498 59.4658 71.0498 59.6436V66.4736ZM71.0498 51.4297V58.1709C71.4561 57.7731 71.8327 57.4727 72.1797 57.2695C72.8145 56.9056 73.5 56.7236 74.2363 56.7236C75.7005 56.7236 76.877 57.2949 77.7656 58.4375C78.6628 59.5801 79.1113 60.985 79.1113 62.6523C79.1113 64.8021 78.54 66.4609 77.3975 67.6289C76.2633 68.7884 74.8499 69.3682 73.1572 69.3682C72.4632 69.3682 71.8496 69.2327 71.3164 68.9619C70.7832 68.6911 70.2839 68.3356 69.8184 67.8955L67.7744 69.3682H67.4062V53.5625C67.4062 53.0208 67.3089 52.6569 67.1143 52.4707C66.9196 52.276 66.5557 52.1406 66.0225 52.0645V51.4297H71.0498ZM80.5205 68.3779C81.0199 68.3187 81.3669 68.2002 81.5615 68.0225C81.7562 67.8447 81.862 67.502 81.8789 66.9941L81.9043 66.2324V59.1611C81.9043 58.6195 81.8112 58.2513 81.625 58.0566C81.4388 57.862 81.0706 57.7308 80.5205 57.6631V57.0283H85.459V59.0723C86.0091 58.3529 86.555 57.7816 87.0967 57.3584C87.6383 56.9352 88.2646 56.7236 88.9756 56.7236C89.5088 56.7236 89.987 56.8971 90.4102 57.2441C90.8418 57.5827 91.0576 58.082 91.0576 58.7422C91.0576 59.25 90.9053 59.6689 90.6006 59.999C90.3044 60.3291 89.915 60.4941 89.4326 60.4941C88.8825 60.4941 88.4043 60.236 87.998 59.7197C87.6003 59.2035 87.321 58.9453 87.1602 58.9453C86.8132 58.9453 86.4619 59.1611 86.1064 59.5928C85.7594 60.016 85.5859 60.6253 85.5859 61.4209V66.334C85.5859 67.1973 85.7087 67.7389 85.9541 67.959C86.208 68.1706 86.7074 68.3102 87.4521 68.3779V69H80.5205V68.3779ZM97.3037 67.5146C97.7269 67.5146 98.1204 67.3877 98.4844 67.1338C98.6875 66.9814 98.9287 66.7445 99.208 66.4229V62.627C98.514 62.7962 97.9046 63.0628 97.3799 63.4268C96.4912 64.0446 96.0469 64.8317 96.0469 65.7881C96.0469 66.3551 96.1738 66.7868 96.4277 67.083C96.6901 67.3708 96.9821 67.5146 97.3037 67.5146ZM92.2637 66.5752C92.2637 65.4072 92.8265 64.4805 93.9521 63.7949C95.0778 63.1094 96.8424 62.4196 99.2461 61.7256V59.834C99.2461 59.0638 99.0811 58.4967 98.751 58.1328C98.4294 57.7604 97.8538 57.5742 97.0244 57.5742C96.5589 57.5742 96.1738 57.6631 95.8691 57.8408C95.5729 58.0101 95.4248 58.2259 95.4248 58.4883C95.4248 58.5898 95.4417 58.6745 95.4756 58.7422C95.5094 58.8099 95.5602 58.8818 95.6279 58.958L95.7803 59.1357C95.8988 59.2796 95.9919 59.4404 96.0596 59.6182C96.1357 59.7874 96.1738 59.9694 96.1738 60.1641C96.1738 60.6549 96.0088 61.0358 95.6787 61.3066C95.3571 61.569 94.9805 61.7002 94.5488 61.7002C94.0495 61.7002 93.6221 61.5521 93.2666 61.2559C92.9196 60.9596 92.7461 60.5322 92.7461 59.9736C92.7461 58.9749 93.2158 58.1836 94.1553 57.5996C95.0947 57.0156 96.25 56.7236 97.6211 56.7236C99.0938 56.7236 100.325 57.0072 101.315 57.5742C102.297 58.1497 102.788 59.2077 102.788 60.748V67.0449C102.788 67.2311 102.835 67.3919 102.928 67.5273C103.029 67.6543 103.139 67.7178 103.258 67.7178C103.359 67.7178 103.448 67.7008 103.524 67.667C103.609 67.6247 103.736 67.5189 103.905 67.3496L104.299 67.8955C103.791 68.488 103.228 68.9027 102.61 69.1396C102.221 69.292 101.811 69.3682 101.379 69.3682C100.609 69.3682 100.046 69.1439 99.6904 68.6953C99.4873 68.4414 99.3392 68.0648 99.2461 67.5654C98.5267 68.2848 97.7142 68.7926 96.8086 69.0889C96.2585 69.2751 95.7168 69.3682 95.1836 69.3682C94.4727 69.3682 93.8083 69.1439 93.1904 68.6953C92.5726 68.2383 92.2637 67.5316 92.2637 66.5752ZM105.073 68.3779C105.573 68.3187 105.92 68.2002 106.114 68.0225C106.309 67.8447 106.415 67.502 106.432 66.9941L106.457 66.2324V59.1611C106.457 58.6195 106.364 58.2513 106.178 58.0566C105.992 57.862 105.623 57.7308 105.073 57.6631V57.0283H110.012V59.0723C110.562 58.3529 111.108 57.7816 111.649 57.3584C112.191 56.9352 112.817 56.7236 113.528 56.7236C114.062 56.7236 114.54 56.8971 114.963 57.2441C115.395 57.5827 115.61 58.082 115.61 58.7422C115.61 59.25 115.458 59.6689 115.153 59.999C114.857 60.3291 114.468 60.4941 113.985 60.4941C113.435 60.4941 112.957 60.236 112.551 59.7197C112.153 59.2035 111.874 58.9453 111.713 58.9453C111.366 58.9453 111.015 59.1611 110.659 59.5928C110.312 60.016 110.139 60.6253 110.139 61.4209V66.334C110.139 67.1973 110.261 67.7389 110.507 67.959C110.761 68.1706 111.26 68.3102 112.005 68.3779V69H105.073V68.3779ZM116.575 72.3516C116.575 71.7591 116.744 71.3232 117.083 71.0439C117.43 70.7646 117.84 70.625 118.314 70.625C118.729 70.625 119.068 70.7477 119.33 70.9932C119.601 71.2386 119.736 71.5306 119.736 71.8691L119.673 72.4404C119.673 72.5505 119.715 72.652 119.8 72.7451C119.884 72.8382 119.99 72.8848 120.117 72.8848C120.54 72.8848 120.934 72.542 121.298 71.8564C121.526 71.4333 121.856 70.6038 122.288 69.3682L119.165 61.6621C118.945 61.1204 118.729 60.6126 118.518 60.1387C118.314 59.6647 118.099 59.2035 117.87 58.7549C117.633 58.2979 117.447 58.0101 117.312 57.8916C117.176 57.7731 116.931 57.6969 116.575 57.6631V57.0283H123.075V57.6631C122.669 57.6715 122.335 57.7181 122.072 57.8027C121.818 57.8874 121.691 58.0693 121.691 58.3486C121.691 58.4079 121.704 58.4883 121.729 58.5898C121.763 58.6914 121.831 58.8734 121.933 59.1357L123.977 64.3662H124.18L125.843 59.6816C125.927 59.4277 125.995 59.2077 126.046 59.0215C126.105 58.8268 126.135 58.6576 126.135 58.5137C126.135 58.1497 126.012 57.9212 125.767 57.8281C125.53 57.7266 125.174 57.6715 124.7 57.6631V57.0283H128.636V57.6631C128.297 57.6885 128.018 57.7816 127.798 57.9424C127.586 58.0947 127.366 58.4714 127.138 59.0723L123.253 69.4316C122.542 71.3444 121.928 72.6436 121.412 73.3291C120.904 74.0146 120.104 74.3574 119.013 74.3574C118.217 74.3574 117.612 74.1458 117.197 73.7227C116.783 73.3079 116.575 72.8509 116.575 72.3516Z" fill="black"/>
<rect x="41" y="80" width="227" height="1" fill="#EAEAEA"/>
<rect x="41" y="80" width="227" height="1" fill="#EAEAEA"/>
<rect x="41" y="113" width="227" height="1" fill="#EAEAEA"/>
<path d="M44.724 129.268C44.692 129.324 44.6573 129.365 44.62 129.392C44.5853 129.416 44.5413 129.428 44.488 129.428C44.432 129.428 44.3707 129.408 44.304 129.368C44.24 129.325 44.1627 129.279 44.072 129.228C43.9813 129.177 43.8747 129.132 43.752 129.092C43.632 129.049 43.4893 129.028 43.324 129.028C43.1747 129.028 43.044 129.047 42.932 129.084C42.82 129.119 42.7253 129.168 42.648 129.232C42.5733 129.296 42.5173 129.373 42.48 129.464C42.4427 129.552 42.424 129.649 42.424 129.756C42.424 129.892 42.4613 130.005 42.536 130.096C42.6133 130.187 42.7147 130.264 42.84 130.328C42.9653 130.392 43.108 130.449 43.268 130.5C43.428 130.551 43.592 130.605 43.76 130.664C43.928 130.72 44.092 130.787 44.252 130.864C44.412 130.939 44.5547 131.035 44.68 131.152C44.8053 131.267 44.9053 131.408 44.98 131.576C45.0573 131.744 45.096 131.948 45.096 132.188C45.096 132.449 45.0507 132.695 44.96 132.924C44.872 133.151 44.7413 133.349 44.568 133.52C44.3973 133.688 44.188 133.821 43.94 133.92C43.692 134.016 43.408 134.064 43.088 134.064C42.904 134.064 42.7227 134.045 42.544 134.008C42.3653 133.973 42.1933 133.923 42.028 133.856C41.8653 133.789 41.712 133.709 41.568 133.616C41.424 133.523 41.296 133.419 41.184 133.304L41.5 132.788C41.5267 132.751 41.5613 132.72 41.604 132.696C41.6467 132.669 41.692 132.656 41.74 132.656C41.8067 132.656 41.8787 132.684 41.956 132.74C42.0333 132.793 42.1253 132.853 42.232 132.92C42.3387 132.987 42.4627 133.048 42.604 133.104C42.748 133.157 42.92 133.184 43.12 133.184C43.4267 133.184 43.664 133.112 43.832 132.968C44 132.821 44.084 132.612 44.084 132.34C44.084 132.188 44.0453 132.064 43.968 131.968C43.8933 131.872 43.7933 131.792 43.668 131.728C43.5427 131.661 43.4 131.605 43.24 131.56C43.08 131.515 42.9173 131.465 42.752 131.412C42.5867 131.359 42.424 131.295 42.264 131.22C42.104 131.145 41.9613 131.048 41.836 130.928C41.7107 130.808 41.6093 130.659 41.532 130.48C41.4573 130.299 41.42 130.076 41.42 129.812C41.42 129.601 41.4613 129.396 41.544 129.196C41.6293 128.996 41.752 128.819 41.912 128.664C42.072 128.509 42.2693 128.385 42.504 128.292C42.7387 128.199 43.008 128.152 43.312 128.152C43.6533 128.152 43.968 128.205 44.256 128.312C44.544 128.419 44.7893 128.568 44.992 128.76L44.724 129.268ZM51.5506 131.108C51.5506 131.532 51.48 131.925 51.3386 132.288C51.2 132.648 51.0026 132.96 50.7466 133.224C50.4906 133.488 50.1826 133.695 49.8226 133.844C49.4626 133.991 49.0626 134.064 48.6226 134.064C48.1853 134.064 47.7866 133.991 47.4266 133.844C47.0666 133.695 46.7573 133.488 46.4986 133.224C46.2426 132.96 46.044 132.648 45.9026 132.288C45.7613 131.925 45.6906 131.532 45.6906 131.108C45.6906 130.684 45.7613 130.292 45.9026 129.932C46.044 129.569 46.2426 129.256 46.4986 128.992C46.7573 128.728 47.0666 128.523 47.4266 128.376C47.7866 128.227 48.1853 128.152 48.6226 128.152C48.916 128.152 49.192 128.187 49.4506 128.256C49.7093 128.323 49.9466 128.419 50.1626 128.544C50.3786 128.667 50.572 128.817 50.7426 128.996C50.916 129.172 51.0626 129.369 51.1826 129.588C51.3026 129.807 51.3933 130.044 51.4546 130.3C51.5186 130.556 51.5506 130.825 51.5506 131.108ZM50.4506 131.108C50.4506 130.791 50.408 130.507 50.3226 130.256C50.2373 130.003 50.116 129.788 49.9586 129.612C49.8013 129.436 49.6093 129.301 49.3826 129.208C49.1586 129.115 48.9053 129.068 48.6226 129.068C48.34 129.068 48.0853 129.115 47.8586 129.208C47.6346 129.301 47.4426 129.436 47.2826 129.612C47.1253 129.788 47.004 130.003 46.9186 130.256C46.8333 130.507 46.7906 130.791 46.7906 131.108C46.7906 131.425 46.8333 131.711 46.9186 131.964C47.004 132.215 47.1253 132.428 47.2826 132.604C47.4426 132.777 47.6346 132.911 47.8586 133.004C48.0853 133.097 48.34 133.144 48.6226 133.144C48.9053 133.144 49.1586 133.097 49.3826 133.004C49.6093 132.911 49.8013 132.777 49.9586 132.604C50.116 132.428 50.2373 132.215 50.3226 131.964C50.408 131.711 50.4506 131.425 50.4506 131.108ZM54.2436 130.968C54.4462 130.968 54.6222 130.943 54.7716 130.892C54.9236 130.841 55.0476 130.772 55.1436 130.684C55.2422 130.593 55.3156 130.487 55.3636 130.364C55.4116 130.241 55.4356 130.107 55.4356 129.96C55.4356 129.667 55.3382 129.441 55.1436 129.284C54.9516 129.127 54.6569 129.048 54.2596 129.048H53.5716V130.968H54.2436ZM57.0116 134H56.0396C55.8556 134 55.7222 133.928 55.6396 133.784L54.4236 131.932C54.3782 131.863 54.3276 131.813 54.2716 131.784C54.2182 131.755 54.1382 131.74 54.0316 131.74H53.5716V134H52.4956V128.216H54.2596C54.6516 128.216 54.9876 128.257 55.2676 128.34C55.5502 128.42 55.7809 128.533 55.9596 128.68C56.1409 128.827 56.2742 129.003 56.3596 129.208C56.4449 129.411 56.4876 129.635 56.4876 129.88C56.4876 130.075 56.4582 130.259 56.3996 130.432C56.3436 130.605 56.2609 130.763 56.1516 130.904C56.0449 131.045 55.9116 131.169 55.7516 131.276C55.5942 131.383 55.4142 131.467 55.2116 131.528C55.2809 131.568 55.3449 131.616 55.4036 131.672C55.4622 131.725 55.5156 131.789 55.5636 131.864L57.0116 134ZM61.5278 129.1H59.7838V134H58.7078V129.1H56.9638V128.216H61.5278V129.1Z" fill="#9C9C9C"/>
<path d="M74.3926 128.216V134H73.4446V130.264C73.4446 130.115 73.4526 129.953 73.4686 129.78L71.7206 133.064C71.6379 133.221 71.5112 133.3 71.3406 133.3H71.1886C71.0179 133.3 70.8912 133.221 70.8086 133.064L69.0406 129.768C69.0486 129.856 69.0552 129.943 69.0606 130.028C69.0659 130.113 69.0686 130.192 69.0686 130.264V134H68.1206V128.216H68.9326C68.9806 128.216 69.0219 128.217 69.0566 128.22C69.0912 128.223 69.1219 128.229 69.1486 128.24C69.1779 128.251 69.2032 128.268 69.2246 128.292C69.2486 128.316 69.2712 128.348 69.2926 128.388L71.0246 131.6C71.0699 131.685 71.1112 131.773 71.1486 131.864C71.1886 131.955 71.2272 132.048 71.2646 132.144C71.3019 132.045 71.3406 131.951 71.3806 131.86C71.4206 131.767 71.4632 131.677 71.5086 131.592L73.2166 128.388C73.2379 128.348 73.2606 128.316 73.2846 128.292C73.3086 128.268 73.3339 128.251 73.3606 128.24C73.3899 128.229 73.4219 128.223 73.4566 128.22C73.4912 128.217 73.5326 128.216 73.5806 128.216H74.3926ZM78.7391 131.816L78.0351 129.892C78.0004 129.807 77.9644 129.705 77.9271 129.588C77.8897 129.471 77.8524 129.344 77.8151 129.208C77.7804 129.344 77.7444 129.472 77.7071 129.592C77.6697 129.709 77.6337 129.812 77.5991 129.9L76.8991 131.816H78.7391ZM80.6391 134H79.8071C79.7137 134 79.6377 133.977 79.5791 133.932C79.5204 133.884 79.4764 133.825 79.4471 133.756L79.0151 132.576H76.6191L76.1871 133.756C76.1657 133.817 76.1244 133.873 76.0631 133.924C76.0017 133.975 75.9257 134 75.8351 134H74.9951L77.2711 128.216H78.3671L80.6391 134ZM86.1138 128.216V134H85.5618C85.4764 134 85.4044 133.987 85.3458 133.96C85.2898 133.931 85.2351 133.883 85.1818 133.816L82.1618 129.96C82.1778 130.136 82.1858 130.299 82.1858 130.448V134H81.2378V128.216H81.8018C81.8471 128.216 81.8858 128.219 81.9178 128.224C81.9524 128.227 81.9818 128.235 82.0058 128.248C82.0324 128.259 82.0578 128.276 82.0818 128.3C82.1058 128.321 82.1324 128.351 82.1618 128.388L85.1938 132.26C85.1858 132.167 85.1791 132.075 85.1738 131.984C85.1684 131.893 85.1658 131.809 85.1658 131.732V128.216H86.1138ZM89.7298 133.132C89.9378 133.132 90.1231 133.097 90.2858 133.028C90.4511 132.959 90.5898 132.861 90.7018 132.736C90.8138 132.611 90.8991 132.459 90.9578 132.28C91.0191 132.101 91.0498 131.901 91.0498 131.68V128.216H92.1258V131.68C92.1258 132.024 92.0698 132.343 91.9578 132.636C91.8485 132.927 91.6898 133.179 91.4818 133.392C91.2765 133.603 91.0258 133.768 90.7298 133.888C90.4338 134.005 90.1005 134.064 89.7298 134.064C89.3565 134.064 89.0218 134.005 88.7258 133.888C88.4298 133.768 88.1778 133.603 87.9698 133.392C87.7645 133.179 87.6058 132.927 87.4938 132.636C87.3845 132.343 87.3298 132.024 87.3298 131.68V128.216H88.4058V131.676C88.4058 131.897 88.4351 132.097 88.4938 132.276C88.5551 132.455 88.6418 132.608 88.7538 132.736C88.8685 132.861 89.0071 132.959 89.1698 133.028C89.3351 133.097 89.5218 133.132 89.7298 133.132ZM96.2547 131.816L95.5507 129.892C95.516 129.807 95.48 129.705 95.4427 129.588C95.4054 129.471 95.368 129.344 95.3307 129.208C95.296 129.344 95.26 129.472 95.2227 129.592C95.1854 129.709 95.1494 129.812 95.1147 129.9L94.4147 131.816H96.2547ZM98.1547 134H97.3227C97.2294 134 97.1534 133.977 97.0947 133.932C97.036 133.884 96.992 133.825 96.9627 133.756L96.5307 132.576H94.1347L93.7027 133.756C93.6814 133.817 93.64 133.873 93.5787 133.924C93.5174 133.975 93.4414 134 93.3507 134H92.5107L94.7867 128.216H95.8827L98.1547 134ZM102.141 133.112V134H98.7534V128.216H99.8294V133.112H102.141ZM106.298 133.112V134H102.91V128.216H103.986V133.112H106.298ZM108.792 131.76V134H107.72V131.76L105.612 128.216H106.56C106.653 128.216 106.727 128.239 106.78 128.284C106.836 128.329 106.883 128.387 106.92 128.456L107.976 130.388C108.037 130.503 108.091 130.611 108.136 130.712C108.184 130.813 108.227 130.915 108.264 131.016C108.299 130.915 108.339 130.813 108.384 130.712C108.429 130.611 108.481 130.503 108.54 130.388L109.592 128.456C109.621 128.397 109.665 128.343 109.724 128.292C109.783 128.241 109.857 128.216 109.948 128.216H110.9L108.792 131.76Z" fill="#262626"/>
<defs>
<filter id="filter0_f_1505_3" x="0" y="0" width="319" height="388" filterUnits="userSpaceOnUse" color-interpolation-filters="sRGB">
<feFlood flood-opacity="0" result="BackgroundImageFix"/>
<feBlend mode="normal" in="SourceGraphic" in2="BackgroundImageFix" result="shape"/>
<feGaussianBlur stdDeviation="10" result="effect1_foregroundBlur_1505_3"/>
</filter>
</defs>
</svg>
