<svg width="319" height="388" viewBox="0 0 319 388" fill="none" xmlns="http://www.w3.org/2000/svg">
<g filter="url(#filter0_f_1514_16)">
<rect x="20" y="368" width="348" height="279" rx="12" transform="rotate(-90 20 368)" fill="#09143A" fill-opacity="0.06"/>
</g>
<rect x="12" y="13" width="292" height="342" rx="18" fill="#121212"/>
<path d="M56.156 67.072V70H45.824V52.588H49.424V67.072H56.156ZM61.3151 57.628V70H58.0031V57.628H61.3151ZM61.7111 54.112C61.7111 54.392 61.6551 54.652 61.5431 54.892C61.4311 55.132 61.2791 55.344 61.0871 55.528C60.9031 55.712 60.6831 55.856 60.4271 55.96C60.1791 56.064 59.9111 56.116 59.6231 56.116C59.3511 56.116 59.0911 56.064 58.8431 55.96C58.6031 55.856 58.3911 55.712 58.2071 55.528C58.0231 55.344 57.8751 55.132 57.7631 54.892C57.6591 54.652 57.6071 54.392 57.6071 54.112C57.6071 53.832 57.6591 53.572 57.7631 53.332C57.8751 53.084 58.0231 52.868 58.2071 52.684C58.3911 52.5 58.6031 52.356 58.8431 52.252C59.0911 52.148 59.3511 52.096 59.6231 52.096C59.9111 52.096 60.1791 52.148 60.4271 52.252C60.6831 52.356 60.9031 52.5 61.0871 52.684C61.2791 52.868 61.4311 53.084 61.5431 53.332C61.6551 53.572 61.7111 53.832 61.7111 54.112ZM71.8334 60.172C71.7454 60.308 71.6534 60.408 71.5574 60.472C71.4694 60.528 71.3454 60.556 71.1854 60.556C71.0254 60.556 70.8614 60.516 70.6934 60.436C70.5254 60.356 70.3374 60.272 70.1294 60.184C69.9214 60.088 69.6814 60 69.4094 59.92C69.1454 59.84 68.8374 59.8 68.4854 59.8C67.9494 59.8 67.5334 59.912 67.2374 60.136C66.9414 60.352 66.7934 60.64 66.7934 61C66.7934 61.248 66.8774 61.456 67.0454 61.624C67.2134 61.792 67.4334 61.94 67.7054 62.068C67.9854 62.188 68.3014 62.304 68.6534 62.416C69.0054 62.52 69.3654 62.636 69.7334 62.764C70.1094 62.892 70.4734 63.04 70.8254 63.208C71.1774 63.376 71.4894 63.588 71.7614 63.844C72.0414 64.092 72.2654 64.396 72.4334 64.756C72.6014 65.108 72.6854 65.536 72.6854 66.04C72.6854 66.64 72.5734 67.196 72.3494 67.708C72.1334 68.212 71.8134 68.648 71.3894 69.016C70.9654 69.384 70.4374 69.672 69.8054 69.88C69.1734 70.088 68.4454 70.192 67.6214 70.192C67.1974 70.192 66.7774 70.152 66.3614 70.072C65.9454 70 65.5494 69.896 65.1734 69.76C64.7974 69.616 64.4454 69.452 64.1174 69.268C63.7894 69.084 63.5054 68.884 63.2654 68.668L64.0334 67.432C64.1214 67.288 64.2294 67.176 64.3574 67.096C64.4934 67.016 64.6654 66.976 64.8734 66.976C65.0734 66.976 65.2574 67.028 65.4254 67.132C65.5934 67.228 65.7814 67.336 65.9894 67.456C66.1974 67.568 66.4414 67.676 66.7214 67.78C67.0094 67.876 67.3654 67.924 67.7894 67.924C68.1094 67.924 68.3854 67.888 68.6174 67.816C68.8494 67.744 69.0374 67.648 69.1814 67.528C69.3254 67.4 69.4294 67.26 69.4934 67.108C69.5654 66.948 69.6014 66.784 69.6014 66.616C69.6014 66.344 69.5134 66.124 69.3374 65.956C69.1694 65.78 68.9454 65.628 68.6654 65.5C68.3934 65.372 68.0774 65.256 67.7174 65.152C67.3574 65.048 66.9894 64.932 66.6134 64.804C66.2454 64.676 65.8814 64.524 65.5214 64.348C65.1694 64.172 64.8534 63.952 64.5734 63.688C64.3014 63.416 64.0774 63.084 63.9014 62.692C63.7334 62.3 63.6494 61.824 63.6494 61.264C63.6494 60.752 63.7494 60.268 63.9494 59.812C64.1494 59.348 64.4494 58.94 64.8494 58.588C65.2494 58.236 65.7454 57.956 66.3374 57.748C66.9374 57.54 67.6294 57.436 68.4134 57.436C69.2934 57.436 70.0934 57.58 70.8134 57.868C71.5334 58.156 72.1254 58.532 72.5894 58.996L71.8334 60.172ZM79.0306 70.192C78.4706 70.192 77.9746 70.112 77.5426 69.952C77.1106 69.784 76.7466 69.548 76.4506 69.244C76.1546 68.94 75.9306 68.572 75.7786 68.14C75.6266 67.708 75.5506 67.22 75.5506 66.676V60.004H74.3866C74.2106 60.004 74.0586 59.948 73.9306 59.836C73.8106 59.724 73.7506 59.556 73.7506 59.332V58.036L75.7306 57.676L76.4026 54.472C76.4906 54.112 76.7346 53.932 77.1346 53.932H78.8626V57.7H82.0546V60.004H78.8626V66.46C78.8626 66.804 78.9426 67.076 79.1026 67.276C79.2706 67.476 79.5066 67.576 79.8106 67.576C79.9706 67.576 80.1066 67.56 80.2186 67.528C80.3306 67.488 80.4266 67.448 80.5066 67.408C80.5866 67.36 80.6586 67.32 80.7226 67.288C80.7946 67.248 80.8666 67.228 80.9386 67.228C81.0346 67.228 81.1146 67.252 81.1786 67.3C81.2426 67.34 81.3066 67.412 81.3706 67.516L82.3666 69.1C81.9106 69.46 81.3946 69.732 80.8186 69.916C80.2426 70.1 79.6466 70.192 79.0306 70.192ZM91.5598 62.356C91.5598 62.012 91.5118 61.684 91.4158 61.372C91.3278 61.06 91.1838 60.784 90.9838 60.544C90.7838 60.304 90.5318 60.116 90.2278 59.98C89.9238 59.836 89.5598 59.764 89.1358 59.764C88.3438 59.764 87.7238 59.988 87.2758 60.436C86.8278 60.884 86.5358 61.524 86.3998 62.356H91.5598ZM86.3518 64.324C86.4558 65.484 86.7838 66.332 87.3358 66.868C87.8958 67.404 88.6238 67.672 89.5198 67.672C89.9758 67.672 90.3678 67.62 90.6958 67.516C91.0318 67.404 91.3238 67.284 91.5718 67.156C91.8278 67.02 92.0558 66.9 92.2558 66.796C92.4638 66.684 92.6678 66.628 92.8678 66.628C93.1238 66.628 93.3238 66.724 93.4678 66.916L94.4278 68.116C94.0758 68.524 93.6878 68.864 93.2638 69.136C92.8398 69.4 92.3998 69.612 91.9438 69.772C91.4878 69.924 91.0278 70.028 90.5638 70.084C90.0998 70.148 89.6518 70.18 89.2198 70.18C88.3558 70.18 87.5478 70.04 86.7958 69.76C86.0518 69.472 85.3998 69.052 84.8398 68.5C84.2878 67.94 83.8518 67.248 83.5318 66.424C83.2118 65.6 83.0518 64.644 83.0518 63.556C83.0518 62.716 83.1878 61.924 83.4598 61.18C83.7398 60.436 84.1398 59.788 84.6598 59.236C85.1798 58.684 85.8118 58.248 86.5558 57.928C87.2998 57.6 88.1398 57.436 89.0758 57.436C89.8678 57.436 90.5958 57.564 91.2598 57.82C91.9318 58.068 92.5078 58.432 92.9878 58.912C93.4758 59.392 93.8518 59.984 94.1158 60.688C94.3878 61.384 94.5238 62.18 94.5238 63.076C94.5238 63.324 94.5118 63.528 94.4878 63.688C94.4638 63.848 94.4238 63.976 94.3678 64.072C94.3118 64.168 94.2358 64.236 94.1398 64.276C94.0438 64.308 93.9198 64.324 93.7678 64.324H86.3518ZM99.6509 59.068C99.8989 58.828 100.155 58.608 100.419 58.408C100.691 58.208 100.975 58.036 101.271 57.892C101.575 57.748 101.899 57.636 102.243 57.556C102.595 57.476 102.975 57.436 103.383 57.436C104.055 57.436 104.651 57.552 105.171 57.784C105.691 58.016 106.127 58.34 106.479 58.756C106.839 59.172 107.107 59.668 107.283 60.244C107.467 60.82 107.559 61.452 107.559 62.14V70H104.259V62.14C104.259 61.452 104.099 60.92 103.779 60.544C103.459 60.16 102.987 59.968 102.363 59.968C101.899 59.968 101.463 60.068 101.055 60.268C100.647 60.468 100.259 60.748 99.8909 61.108V70H96.5789V57.628H98.6189C99.0349 57.628 99.3109 57.82 99.4469 58.204L99.6509 59.068ZM131.263 52.588V70H129.403C129.123 70 128.887 69.956 128.695 69.868C128.503 69.772 128.315 69.612 128.131 69.388L119.455 58.348C119.479 58.628 119.495 58.904 119.503 59.176C119.519 59.448 119.527 59.7 119.527 59.932V70H116.347V52.588H118.243C118.395 52.588 118.523 52.596 118.627 52.612C118.739 52.62 118.839 52.648 118.927 52.696C119.015 52.736 119.099 52.792 119.179 52.864C119.259 52.936 119.347 53.032 119.443 53.152L128.179 64.24C128.147 63.936 128.123 63.644 128.107 63.364C128.091 63.076 128.083 62.804 128.083 62.548V52.588H131.263ZM139.659 57.436C140.587 57.436 141.431 57.584 142.191 57.88C142.951 58.176 143.603 58.6 144.147 59.152C144.691 59.696 145.111 60.36 145.407 61.144C145.703 61.928 145.851 62.812 145.851 63.796C145.851 64.78 145.703 65.668 145.407 66.46C145.111 67.244 144.691 67.912 144.147 68.464C143.603 69.016 142.951 69.44 142.191 69.736C141.431 70.032 140.587 70.18 139.659 70.18C138.723 70.18 137.871 70.032 137.103 69.736C136.343 69.44 135.691 69.016 135.147 68.464C134.603 67.912 134.179 67.244 133.875 66.46C133.579 65.668 133.431 64.78 133.431 63.796C133.431 62.812 133.579 61.928 133.875 61.144C134.179 60.36 134.603 59.696 135.147 59.152C135.691 58.6 136.343 58.176 137.103 57.88C137.871 57.584 138.723 57.436 139.659 57.436ZM139.659 67.696C140.603 67.696 141.303 67.372 141.759 66.724C142.215 66.068 142.443 65.096 142.443 63.808C142.443 62.528 142.215 61.564 141.759 60.916C141.303 60.26 140.603 59.932 139.659 59.932C138.691 59.932 137.979 60.26 137.523 60.916C137.067 61.564 136.839 62.528 136.839 63.808C136.839 65.096 137.067 66.068 137.523 66.724C137.979 67.372 138.691 67.696 139.659 67.696ZM165.636 57.628L161.748 70H159.072C158.936 70 158.812 69.956 158.7 69.868C158.596 69.78 158.516 69.632 158.46 69.424L156.444 62.728C156.364 62.472 156.292 62.22 156.228 61.972C156.172 61.716 156.12 61.46 156.072 61.204C156.016 61.46 155.956 61.72 155.892 61.984C155.836 62.24 155.768 62.496 155.688 62.752L153.648 69.424C153.536 69.808 153.296 70 152.928 70H150.384L146.496 57.628H149.136C149.376 57.628 149.576 57.684 149.736 57.796C149.904 57.908 150.016 58.052 150.072 58.228L151.596 64.348C151.692 64.74 151.776 65.12 151.848 65.488C151.92 65.856 151.988 66.22 152.052 66.58C152.148 66.22 152.248 65.856 152.352 65.488C152.464 65.12 152.58 64.74 152.7 64.348L154.512 58.204C154.568 58.036 154.676 57.896 154.836 57.784C154.996 57.672 155.184 57.616 155.4 57.616H156.864C157.096 57.616 157.292 57.672 157.452 57.784C157.62 57.896 157.732 58.036 157.788 58.204L159.54 64.348C159.652 64.732 159.76 65.112 159.864 65.488C159.968 65.856 160.064 66.228 160.152 66.604C160.216 66.236 160.284 65.868 160.356 65.5C160.436 65.124 160.528 64.74 160.632 64.348L162.228 58.228C162.284 58.052 162.392 57.908 162.552 57.796C162.712 57.684 162.9 57.628 163.116 57.628H165.636Z" fill="white"/>
<rect x="44" y="80" width="227" height="1" fill="#252525"/>
<rect x="44" y="80" width="227" height="1" fill="#252525"/>
<rect x="44" y="113" width="227" height="1" fill="#252525"/>
<path d="M47.695 130.055C47.9717 130.055 48.2183 130.008 48.435 129.915C48.655 129.822 48.84 129.692 48.99 129.525C49.1433 129.358 49.26 129.158 49.34 128.925C49.42 128.688 49.46 128.427 49.46 128.14V123.8H50.625V128.14C50.625 128.563 50.5567 128.955 50.42 129.315C50.2867 129.675 50.0933 129.987 49.84 130.25C49.5867 130.51 49.2783 130.715 48.915 130.865C48.555 131.012 48.1483 131.085 47.695 131.085C47.2417 131.085 46.8333 131.012 46.47 130.865C46.11 130.715 45.8033 130.51 45.55 130.25C45.2967 129.987 45.1017 129.675 44.965 129.315C44.8317 128.955 44.765 128.563 44.765 128.14V123.8H45.935V128.135C45.935 128.422 45.975 128.683 46.055 128.92C46.135 129.153 46.25 129.355 46.4 129.525C46.55 129.692 46.7333 129.822 46.95 129.915C47.17 130.008 47.4183 130.055 47.695 130.055ZM52.9663 129.72C53.1163 129.913 53.2797 130.05 53.4563 130.13C53.6363 130.207 53.8347 130.245 54.0513 130.245C54.4713 130.245 54.798 130.092 55.0313 129.785C55.268 129.478 55.3863 129.022 55.3863 128.415C55.3863 128.102 55.3597 127.835 55.3063 127.615C55.253 127.392 55.1763 127.21 55.0763 127.07C54.9763 126.93 54.8547 126.828 54.7113 126.765C54.568 126.702 54.4063 126.67 54.2263 126.67C53.953 126.67 53.7163 126.73 53.5163 126.85C53.3197 126.967 53.1363 127.135 52.9663 127.355V129.72ZM52.9113 126.64C53.1247 126.39 53.3663 126.188 53.6363 126.035C53.9097 125.882 54.2263 125.805 54.5863 125.805C54.873 125.805 55.133 125.863 55.3663 125.98C55.5997 126.093 55.7997 126.26 55.9663 126.48C56.133 126.7 56.2613 126.973 56.3513 127.3C56.4447 127.623 56.4913 127.995 56.4913 128.415C56.4913 128.792 56.4397 129.143 56.3363 129.47C56.2363 129.793 56.0913 130.075 55.9013 130.315C55.7113 130.552 55.4813 130.738 55.2113 130.875C54.9413 131.008 54.6363 131.075 54.2963 131.075C53.9963 131.075 53.7413 131.027 53.5313 130.93C53.3247 130.833 53.1363 130.7 52.9663 130.53V132.695H51.8913V125.9H52.5413C52.688 125.9 52.7813 125.968 52.8213 126.105L52.9113 126.64ZM61.0311 126.575C61.1411 126.462 61.2544 126.36 61.3711 126.27C61.4911 126.177 61.6178 126.097 61.7511 126.03C61.8844 125.963 62.0261 125.912 62.1761 125.875C62.3261 125.838 62.4894 125.82 62.6661 125.82C62.9461 125.82 63.1911 125.867 63.4011 125.96C63.6144 126.053 63.7928 126.185 63.9361 126.355C64.0828 126.525 64.1928 126.73 64.2661 126.97C64.3394 127.207 64.3761 127.468 64.3761 127.755V131H63.3061V127.755C63.3061 127.412 63.2261 127.145 63.0661 126.955C62.9094 126.765 62.6694 126.67 62.3461 126.67C62.1061 126.67 61.8828 126.725 61.6761 126.835C61.4728 126.945 61.2811 127.095 61.1011 127.285V131H60.0261V125.9H60.6761C60.8228 125.9 60.9161 125.968 60.9561 126.105L61.0311 126.575ZM68.9766 127.875C68.9766 127.695 68.9499 127.528 68.8966 127.375C68.8466 127.218 68.7716 127.083 68.6716 126.97C68.5716 126.853 68.4466 126.763 68.2966 126.7C68.1499 126.633 67.9799 126.6 67.7866 126.6C67.3966 126.6 67.0899 126.712 66.8666 126.935C66.6432 127.158 66.5016 127.472 66.4416 127.875H68.9766ZM66.4116 128.535C66.4249 128.825 66.4699 129.077 66.5466 129.29C66.6232 129.5 66.7249 129.675 66.8516 129.815C66.9816 129.955 67.1349 130.06 67.3116 130.13C67.4916 130.197 67.6916 130.23 67.9116 130.23C68.1216 130.23 68.3032 130.207 68.4566 130.16C68.6099 130.11 68.7432 130.057 68.8566 130C68.9699 129.94 69.0666 129.887 69.1466 129.84C69.2266 129.79 69.2999 129.765 69.3666 129.765C69.4532 129.765 69.5199 129.798 69.5666 129.865L69.8716 130.26C69.7449 130.41 69.6016 130.537 69.4416 130.64C69.2816 130.743 69.1116 130.828 68.9316 130.895C68.7516 130.958 68.5666 131.003 68.3766 131.03C68.1866 131.06 68.0016 131.075 67.8216 131.075C67.4682 131.075 67.1399 131.017 66.8366 130.9C66.5366 130.78 66.2749 130.605 66.0516 130.375C65.8316 130.145 65.6582 129.86 65.5316 129.52C65.4082 129.18 65.3466 128.788 65.3466 128.345C65.3466 127.992 65.4016 127.662 65.5116 127.355C65.6249 127.048 65.7849 126.782 65.9916 126.555C66.2016 126.328 66.4549 126.15 66.7516 126.02C67.0516 125.887 67.3899 125.82 67.7666 125.82C68.0799 125.82 68.3699 125.872 68.6366 125.975C68.9032 126.075 69.1332 126.223 69.3266 126.42C69.5199 126.617 69.6699 126.858 69.7766 127.145C69.8866 127.428 69.9416 127.752 69.9416 128.115C69.9416 128.282 69.9232 128.393 69.8866 128.45C69.8499 128.507 69.7832 128.535 69.6866 128.535H66.4116ZM75.2557 131H74.2257C74.1424 131 74.0757 130.978 74.0257 130.935C73.979 130.892 73.9407 130.843 73.9107 130.79L72.7357 128.905C72.7057 129.018 72.6657 129.117 72.6157 129.2L71.5507 130.79C71.514 130.843 71.4724 130.892 71.4257 130.935C71.3824 130.978 71.324 131 71.2507 131H70.2907L72.0557 128.37L70.3607 125.9H71.3907C71.474 125.9 71.534 125.913 71.5707 125.94C71.6107 125.963 71.6457 126 71.6757 126.05L72.8307 127.85C72.8607 127.74 72.9074 127.635 72.9707 127.535L73.9457 126.07C74.0124 125.957 74.0974 125.9 74.2007 125.9H75.1857L73.4907 128.325L75.2557 131ZM77.6181 131.08C77.1948 131.08 76.8681 130.962 76.6381 130.725C76.4115 130.485 76.2981 130.148 76.2981 129.715V126.745H75.7381C75.6781 126.745 75.6265 126.727 75.5831 126.69C75.5398 126.65 75.5181 126.592 75.5181 126.515V126.08L76.3431 125.96L76.5781 124.485C76.5948 124.428 76.6231 124.383 76.6631 124.35C76.7031 124.313 76.7565 124.295 76.8231 124.295H77.3731V125.97H78.7881V126.745H77.3731V129.64C77.3731 129.823 77.4181 129.963 77.5081 130.06C77.5981 130.157 77.7181 130.205 77.8681 130.205C77.9515 130.205 78.0231 130.195 78.0831 130.175C78.1431 130.152 78.1948 130.128 78.2381 130.105C78.2815 130.078 78.3181 130.055 78.3481 130.035C78.3815 130.012 78.4131 130 78.4431 130C78.5031 130 78.5515 130.033 78.5881 130.1L78.9081 130.625C78.7415 130.772 78.5448 130.885 78.3181 130.965C78.0915 131.042 77.8581 131.08 77.6181 131.08Z" fill="#626262"/>
<defs>
<filter id="filter0_f_1514_16" x="0" y="0" width="319" height="388" filterUnits="userSpaceOnUse" color-interpolation-filters="sRGB">
<feFlood flood-opacity="0" result="BackgroundImageFix"/>
<feBlend mode="normal" in="SourceGraphic" in2="BackgroundImageFix" result="shape"/>
<feGaussianBlur stdDeviation="10" result="effect1_foregroundBlur_1514_16"/>
</filter>
</defs>
</svg>
