<svg width="87" height="90" viewBox="0 0 87 90" fill="none" xmlns="http://www.w3.org/2000/svg">
<g filter="url(#filter0_d)">
<rect x="10" y="6" width="67" height="70" rx="14" fill="url(#paint0_linear)"/>
</g>
<path d="M44.5 18C33.1837 18 24 27.8556 24 40C24 52.1444 33.1837 62 44.5 62C55.8163 62 65 52.1444 65 40C65 27.8556 55.8163 18 44.5 18ZM52.824 50.3702C52.4768 50.3702 52.2619 50.2548 51.9395 50.0508C46.7815 46.7153 40.7802 46.5734 34.8534 47.8774C34.531 47.9661 34.1095 48.1081 33.8698 48.1081C33.0679 48.1081 32.5637 47.425 32.5637 46.7065C32.5637 45.7927 33.0679 45.3581 33.6879 45.2161C40.4579 43.6105 47.3766 43.7524 53.2786 47.5403C53.7829 47.8863 54.0804 48.1968 54.0804 49.004C54.0804 49.8113 53.4935 50.3702 52.824 50.3702ZM55.0476 44.5508C54.6177 44.5508 54.3284 44.3468 54.0308 44.1782C48.8645 40.896 41.1605 39.5742 34.3079 41.5702C33.9111 41.6855 33.6962 41.8008 33.3242 41.8008C32.4397 41.8008 31.7206 41.029 31.7206 40.0798C31.7206 39.1306 32.1504 38.5008 33.0018 38.2435C35.2998 37.5516 37.6474 37.0371 41.0861 37.0371C46.4508 37.0371 51.6337 38.4653 55.7171 41.0734C56.3867 41.4992 56.6512 42.0492 56.6512 42.821C56.6429 43.779 55.9486 44.5508 55.0476 44.5508ZM57.6101 37.7911C57.1802 37.7911 56.9157 37.6758 56.5438 37.4452C50.6583 33.675 40.1355 32.7702 33.3242 34.8105C33.0266 34.8992 32.6546 35.0411 32.2579 35.0411C31.1667 35.0411 30.3319 34.1274 30.3319 32.9476C30.3319 31.7411 31.0262 31.0581 31.7702 30.8274C34.6798 29.9137 37.9367 29.479 41.4829 29.479C47.5171 29.479 53.8407 30.8274 58.4615 33.7194C59.1063 34.1185 59.5278 34.6685 59.5278 35.7242C59.5278 36.9306 58.6185 37.7911 57.6101 37.7911Z" fill="#1ED760"/>
<defs>
<filter id="filter0_d" x="0" y="0" width="87" height="90" filterUnits="userSpaceOnUse" color-interpolation-filters="sRGB">
<feFlood flood-opacity="0" result="BackgroundImageFix"/>
<feColorMatrix in="SourceAlpha" type="matrix" values="0 0 0 0 0 0 0 0 0 0 0 0 0 0 0 0 0 0 127 0" result="hardAlpha"/>
<feOffset dy="4"/>
<feGaussianBlur stdDeviation="5"/>
<feColorMatrix type="matrix" values="0 0 0 0 0 0 0 0 0 0 0 0 0 0 0 0 0 0 0.1 0"/>
<feBlend mode="normal" in2="BackgroundImageFix" result="effect1_dropShadow"/>
<feBlend mode="normal" in="SourceGraphic" in2="effect1_dropShadow" result="shape"/>
</filter>
<linearGradient id="paint0_linear" x1="43.5" y1="76" x2="43.5" y2="6" gradientUnits="userSpaceOnUse">
<stop stop-color="#13141F"/>
<stop offset="1" stop-color="#1E1F28"/>
</linearGradient>
</defs>
</svg>
