<svg width="41" height="40" viewBox="0 0 41 40" fill="none" xmlns="http://www.w3.org/2000/svg">
<path d="M20.0107 19.2156C18.9756 19.2156 18.1357 20.0547 18.1357 21.0906C18.2248 26.7352 17.4998 32.1766 15.9717 37.618C15.7584 38.3773 16.1396 40 17.7779 40C18.5967 40 19.349 39.4594 19.5818 38.6312C20.6388 34.8883 22.0068 28.8336 21.8849 21.0906C21.8857 20.0555 21.0467 19.2156 20.0107 19.2156ZM19.9435 12.8305C15.1576 12.825 11.8177 16.5078 11.8842 20.7281C11.9427 24.4734 11.5912 28.2211 10.8396 31.8648C10.6295 32.8789 11.2826 33.8719 12.2959 34.0805C13.3154 34.2891 14.3013 33.6383 14.5115 32.6242C15.3193 28.7109 15.6967 24.6883 15.6342 20.6695C15.6021 18.6422 17.1904 16.5687 19.8881 16.5805C22.3342 16.6172 24.3529 18.5602 24.3896 20.9141C24.4498 24.668 24.1701 28.4398 23.5607 32.1289C23.3912 33.1492 24.0834 34.1148 25.1045 34.2836C26.6646 34.5437 27.199 33.1039 27.2591 32.7391C27.906 28.8305 28.2013 24.832 28.1396 20.8555C28.0709 16.4961 24.3943 12.8961 19.9435 12.8305ZM11.2959 11.2852C10.4912 10.6336 9.31384 10.7539 8.65837 11.557C6.65681 14.018 5.58103 17.1258 5.63103 20.307C5.67712 23.243 5.43806 26.1875 4.91931 29.0609C4.7365 30.0805 5.41228 31.0555 6.43181 31.2398C8.0029 31.5133 8.54665 30.0828 8.61071 29.7273C9.17243 26.6148 9.43103 23.4258 9.38103 20.2484C9.34431 17.9141 10.0998 15.7266 11.5685 13.9227C12.2209 13.1195 12.099 11.9391 11.2959 11.2852ZM19.8482 6.41562C18.6443 6.38359 17.4365 6.52812 16.2717 6.8039C15.2646 7.04296 14.6412 8.05234 14.8787 9.06093C15.1177 10.068 16.1287 10.6883 17.1357 10.4539C17.999 10.25 18.8912 10.1594 19.792 10.1656C25.6849 10.2539 30.5521 14.9703 30.642 20.6797C30.6881 23.6391 30.542 26.6258 30.206 29.557C30.0888 30.5859 30.8271 31.5164 31.8552 31.6336C33.1615 31.7859 33.8482 30.7055 33.9318 29.9844C34.2868 26.8765 34.4405 23.7488 34.392 20.6211C34.2701 12.9062 27.7459 6.53281 19.8482 6.41562ZM39.5412 15.9039C39.3177 14.8945 38.3295 14.2477 37.306 14.4766C36.2951 14.7 35.656 15.7 35.8795 16.7117C36.2474 18.3844 36.2631 19.6344 36.2467 21.5242C36.2381 22.5609 37.0709 23.4062 38.106 23.4148H38.1217C39.1506 23.4148 39.9881 22.5859 39.9967 21.5555C40.0107 19.8227 40.0279 18.1094 39.5412 15.9039ZM36.4068 8.8164C32.6021 3.39531 26.3763 0.100776 19.7521 0.00155735C14.2998 -0.0640676 9.25681 1.94609 5.50603 5.69843C1.88337 9.32578 -0.0689717 14.1437 0.0122783 19.2695L0.00290332 20.9469C-0.0275654 21.982 0.786497 22.8461 1.82165 22.8758C1.83962 22.8773 1.85915 22.8773 1.8779 22.8773C2.88728 22.8773 3.72087 22.0727 3.75056 21.057L3.76306 19.2102C3.69822 15.1086 5.25993 11.2523 8.15993 8.35078C11.1881 5.31953 15.2959 3.68906 19.6974 3.75234C25.1232 3.83281 30.2232 6.53046 33.3396 10.9703C33.9342 11.8187 35.1021 12.0211 35.9506 11.4281C36.7974 10.8328 37.0021 9.66328 36.4068 8.8164Z" fill="#E8EAEF"/>
</svg>
