<svg width="57" height="57" viewBox="0 0 57 57" fill="none" xmlns="http://www.w3.org/2000/svg">
<g filter="url(#filter0_d)">
<rect x="4" y="2" width="49" height="49" rx="10" fill="url(#paint0_linear)"/>
</g>
<path d="M23.7032 36.7664C23.7032 36.8987 23.5548 37.0046 23.3677 37.0046C23.1548 37.0244 23.0065 36.9185 23.0065 36.7664C23.0065 36.634 23.1548 36.5281 23.3419 36.5281C23.5355 36.5083 23.7032 36.6142 23.7032 36.7664ZM21.6968 36.4686C21.6516 36.6009 21.7806 36.7531 21.9742 36.7928C22.1419 36.859 22.3355 36.7928 22.3742 36.6605C22.4129 36.5281 22.2903 36.376 22.0968 36.3164C21.929 36.2701 21.7419 36.3363 21.6968 36.4686ZM24.5484 36.3561C24.3613 36.4024 24.2323 36.5281 24.2516 36.6803C24.271 36.8127 24.4387 36.8987 24.6323 36.8524C24.8194 36.8061 24.9484 36.6803 24.929 36.548C24.9097 36.4223 24.7355 36.3363 24.5484 36.3561ZM28.7935 11C19.8452 11 13 17.9676 13 27.1453C13 34.4835 17.5032 40.763 23.9355 42.973C24.7613 43.1252 25.0516 42.6025 25.0516 42.1724C25.0516 41.7621 25.0323 39.4991 25.0323 38.1096C25.0323 38.1096 20.5161 39.1021 19.5677 36.1377C19.5677 36.1377 18.8323 34.2122 17.7742 33.7159C17.7742 33.7159 16.2968 32.6771 17.8774 32.6969C17.8774 32.6969 19.4839 32.8293 20.3677 34.4041C21.7806 36.9582 24.1484 36.2238 25.071 35.787C25.2194 34.7283 25.6387 33.9939 26.1032 33.5571C22.4968 33.1469 18.8581 32.6109 18.8581 26.2454C18.8581 24.4258 19.3484 23.5126 20.3806 22.348C20.2129 21.9179 19.6645 20.1446 20.5484 17.8551C21.8968 17.425 25 19.6417 25 19.6417C26.2903 19.2712 27.6774 19.0793 29.0516 19.0793C30.4258 19.0793 31.8129 19.2712 33.1032 19.6417C33.1032 19.6417 36.2065 17.4184 37.5548 17.8551C38.4387 20.1512 37.8903 21.9179 37.7226 22.348C38.7548 23.5192 39.3871 24.4324 39.3871 26.2454C39.3871 32.6308 35.5871 33.1403 31.9806 33.5571C32.5742 34.0799 33.0774 35.0724 33.0774 36.6274C33.0774 38.8573 33.0581 41.6166 33.0581 42.1592C33.0581 42.5893 33.3548 43.112 34.1742 42.9598C40.6258 40.763 45 34.4835 45 27.1453C45 17.9676 37.7419 11 28.7935 11ZM19.271 33.8218C19.1871 33.888 19.2065 34.0402 19.3161 34.1659C19.4194 34.2718 19.5677 34.3181 19.6516 34.2321C19.7355 34.1659 19.7161 34.0137 19.6065 33.888C19.5032 33.7821 19.3548 33.7358 19.271 33.8218ZM18.5742 33.2858C18.529 33.3719 18.5935 33.4777 18.7226 33.5439C18.8258 33.6101 18.9548 33.5902 19 33.4976C19.0452 33.4116 18.9806 33.3057 18.8516 33.2395C18.7226 33.1998 18.6194 33.2197 18.5742 33.2858ZM20.6645 35.6415C20.5613 35.7275 20.6 35.926 20.7484 36.0517C20.8968 36.2039 21.0839 36.2238 21.1677 36.1179C21.2516 36.0319 21.2129 35.8334 21.0839 35.7076C20.9419 35.5555 20.7484 35.5356 20.6645 35.6415ZM19.929 34.6688C19.8258 34.735 19.8258 34.907 19.929 35.0592C20.0323 35.2114 20.2065 35.2775 20.2903 35.2114C20.3935 35.1254 20.3935 34.9533 20.2903 34.8011C20.2 34.6489 20.0323 34.5828 19.929 34.6688Z" fill="white"/>
<defs>
<filter id="filter0_d" x="0" y="0" width="57" height="57" filterUnits="userSpaceOnUse" color-interpolation-filters="sRGB">
<feFlood flood-opacity="0" result="BackgroundImageFix"/>
<feColorMatrix in="SourceAlpha" type="matrix" values="0 0 0 0 0 0 0 0 0 0 0 0 0 0 0 0 0 0 127 0"/>
<feOffset dy="2"/>
<feGaussianBlur stdDeviation="2"/>
<feColorMatrix type="matrix" values="0 0 0 0 0 0 0 0 0 0 0 0 0 0 0 0 0 0 0.1 0"/>
<feBlend mode="normal" in2="BackgroundImageFix" result="effect1_dropShadow"/>
<feBlend mode="normal" in="SourceGraphic" in2="effect1_dropShadow" result="shape"/>
</filter>
<linearGradient id="paint0_linear" x1="28.5" y1="51" x2="28.5" y2="2" gradientUnits="userSpaceOnUse">
<stop stop-color="#13152B"/>
<stop offset="1" stop-color="#35385B"/>
</linearGradient>
</defs>
</svg>
