<svg width="137" height="137" viewBox="0 0 137 137" fill="none" xmlns="http://www.w3.org/2000/svg">
<g filter="url(#filter0_d)">
<rect x="10" y="6" width="117" height="117" rx="18" fill="url(#paint0_linear)"/>
</g>
<rect x="88.4078" y="29.4786" width="24.6699" height="35.8834" rx="12.3349" transform="rotate(45 88.4078 29.4786)" fill="#FFE816" fill-opacity="0.87"/>
<rect x="56.3066" y="27.2358" width="26.9126" height="35.8834" rx="13.4563" fill="#FF8E25" fill-opacity="0.7"/>
<rect x="56.3066" y="67.6047" width="26.9126" height="35.8834" rx="13.4563" fill="#005DCA" fill-opacity="0.55"/>
<rect x="31.6365" y="78.8182" width="26.9126" height="35.8834" rx="13.4563" transform="rotate(-90 31.6365 78.8182)" fill="#D76FA7" fill-opacity="0.78"/>
<rect x="72.0052" y="78.8182" width="26.9126" height="35.8834" rx="13.4563" transform="rotate(-90 72.0052 78.8182)" fill="#8EB60B" fill-opacity="0.58"/>
<rect x="63.0347" y="74.9567" width="24.6699" height="35.8834" rx="12.3349" transform="rotate(-45 63.0347 74.9567)" fill="#26A28C" fill-opacity="0.6"/>
<rect x="33.879" y="46.9229" width="24.6699" height="35.8834" rx="12.3349" transform="rotate(-45 33.879 46.9229)" fill="#E14949" fill-opacity="0.7"/>
<rect x="59.2529" y="57.5125" width="24.6699" height="35.8834" rx="12.3349" transform="rotate(45 59.2529 57.5125)" fill="#7B4FB3" fill-opacity="0.6"/>
<defs>
<filter id="filter0_d" x="0" y="0" width="137" height="137" filterUnits="userSpaceOnUse" color-interpolation-filters="sRGB">
<feFlood flood-opacity="0" result="BackgroundImageFix"/>
<feColorMatrix in="SourceAlpha" type="matrix" values="0 0 0 0 0 0 0 0 0 0 0 0 0 0 0 0 0 0 127 0" result="hardAlpha"/>
<feOffset dy="4"/>
<feGaussianBlur stdDeviation="5"/>
<feColorMatrix type="matrix" values="0 0 0 0 0 0 0 0 0 0 0 0 0 0 0 0 0 0 0.06 0"/>
<feBlend mode="normal" in2="BackgroundImageFix" result="effect1_dropShadow"/>
<feBlend mode="normal" in="SourceGraphic" in2="effect1_dropShadow" result="shape"/>
</filter>
<linearGradient id="paint0_linear" x1="68.5" y1="123" x2="68.5" y2="6" gradientUnits="userSpaceOnUse">
<stop stop-color="#12131E"/>
<stop offset="1" stop-color="#1E1F27"/>
</linearGradient>
</defs>
</svg>
